<svg height="480pt" viewBox="-40 0 480 480.17648" width="480pt" xmlns="http://www.w3.org/2000/svg"><path d="m392.089844 72h-384l160 240h64zm0 0" fill="#9bc9ff"/><path d="m168.089844 312v160l45.199218-45.199219c-11.3125-28.082031-3.792968-60.246093 18.800782-80.402343v-34.398438zm0 0" fill="#9bc9ff"/><g fill="#1e81ce"><path d="m400.089844 8c0-4.417969-3.582032-8-8-8h-384c-4.417969 0-8.0000002 3.582031-8.0000002 8v64 .144531c.0195312.929688.2031252 1.851563.5429682 2.71875.085938.226563.207032.417969.3125.632813.128907.324218.28125.640625.453126.945312l158.691406 237.957032v157.601562c0 3.234375 1.949218 6.152344 4.9375 7.390625 2.988281 1.238281 6.429687.550781 8.71875-1.734375l37.292968-37.296875c22.234376 38.222656 71.238282 51.191406 109.46875 28.972656 38.230469-22.214843 51.222657-71.210937 29.019532-109.453125-22.199219-38.242187-71.1875-51.253906-109.4375-29.070312v-16.410156l158.65625-237.957032c.171875-.304687.324218-.621094.453125-.945312.105469-.214844.226562-.40625.3125-.632813.339843-.867187.523437-1.789062.542969-2.71875 0-.046875 0-.089843 0-.144531zm-384 8h368v48h-368zm160 436.6875v-132.6875h48v22.929688c-.609375.589843-1.144532 1.253906-1.730469 1.871093-.878906.910157-1.75 1.832031-2.582031 2.785157-.976563 1.117187-1.890625 2.269531-2.800782 3.4375-.800781.992187-1.535156 1.96875-2.257812 2.992187-.855469 1.214844-1.597656 2.464844-2.398438 3.726563-.65625 1.050781-1.320312 2.082031-1.921874 3.152343-.742188 1.3125-1.398438 2.664063-2.0625 4-.527344 1.082031-1.078126 2.144531-1.601563 3.25-.613281 1.414063-1.132813 2.871094-1.671875 4.328125-.398438 1.09375-.839844 2.167969-1.191406 3.28125-.496094 1.542969-.878906 3.125-1.269532 4.703125-.273437 1.0625-.59375 2.101563-.800781 3.199219-.367187 1.769531-.609375 3.566406-.855469 5.359375-.128906.921875-.320312 1.816406-.417968 2.738281-.289063 2.738282-.4375 5.492188-.4375 8.246094 0 2.398438.125 4.753906.335937 7.097656.0625.757813.175781 1.503906.261719 2.253906.191406 1.601563.410156 3.199219.6875 4.800782.152344.855468.328125 1.703125.511719 2.550781.320312 1.488281.679687 2.964844 1.082031 4.425781.230469.800782.449219 1.648438.703125 2.464844.128906.398438.214844.796875.34375 1.207031zm168-52.6875c-.03125 30.652344-21.789063 56.980469-51.886719 62.78125-30.101563 5.800781-60.085937-10.550781-71.507813-38.996094-3.066406-7.554687-4.632812-15.632812-4.605468-23.785156-.011719-18.191406 7.746094-35.523438 21.328125-47.632812 18.785156-16.863282 45.738281-21.097657 68.792969-10.804688 23.054687 10.296875 37.894531 33.191406 37.878906 58.4375zm-116.28125-96h-55.441406l-149.328126-224h354.097657zm0 0"/><path d="m200.089844 24c-4.417969 0-8 3.582031-8 8v16c0 4.417969 3.582031 8 8 8 4.417968 0 8-3.582031 8-8v-16c0-4.417969-3.582032-8-8-8zm0 0"/><path d="m232.089844 24c-4.417969 0-8 3.582031-8 8v16c0 4.417969 3.582031 8 8 8 4.417968 0 8-3.582031 8-8v-16c0-4.417969-3.582032-8-8-8zm0 0"/><path d="m264.089844 24c-4.417969 0-8 3.582031-8 8v16c0 4.417969 3.582031 8 8 8 4.417968 0 8-3.582031 8-8v-16c0-4.417969-3.582032-8-8-8zm0 0"/><path d="m296.089844 24c-4.417969 0-8 3.582031-8 8v16c0 4.417969 3.582031 8 8 8 4.417968 0 8-3.582031 8-8v-16c0-4.417969-3.582032-8-8-8zm0 0"/><path d="m328.089844 24c-4.417969 0-8 3.582031-8 8v16c0 4.417969 3.582031 8 8 8 4.417968 0 8-3.582031 8-8v-16c0-4.417969-3.582032-8-8-8zm0 0"/><path d="m360.089844 24c-4.417969 0-8 3.582031-8 8v16c0 4.417969 3.582031 8 8 8 4.417968 0 8-3.582031 8-8v-16c0-4.417969-3.582032-8-8-8zm0 0"/><path d="m168.089844 24c-4.417969 0-8 3.582031-8 8v16c0 4.417969 3.582031 8 8 8 4.417968 0 8-3.582031 8-8v-16c0-4.417969-3.582032-8-8-8zm0 0"/><path d="m136.089844 24c-4.417969 0-8 3.582031-8 8v16c0 4.417969 3.582031 8 8 8 4.417968 0 8-3.582031 8-8v-16c0-4.417969-3.582032-8-8-8zm0 0"/><path d="m104.089844 24c-4.417969 0-8 3.582031-8 8v16c0 4.417969 3.582031 8 8 8 4.417968 0 8-3.582031 8-8v-16c0-4.417969-3.582032-8-8-8zm0 0"/><path d="m72.089844 24c-4.417969 0-8 3.582031-8 8v16c0 4.417969 3.582031 8 8 8 4.417968 0 8-3.582031 8-8v-16c0-4.417969-3.582032-8-8-8zm0 0"/><path d="m40.089844 24c-4.417969 0-8 3.582031-8 8v16c0 4.417969 3.582031 8 8 8 4.417968 0 8-3.582031 8-8v-16c0-4.417969-3.582032-8-8-8zm0 0"/><path d="m240.488281 439.601562c3.125 3.121094 8.1875 3.121094 11.3125 0l28.289063-28.289062 28.285156 28.289062c3.140625 3.03125 8.128906 2.988282 11.214844-.097656 3.085937-3.085937 3.128906-8.078125.097656-11.214844l-28.289062-28.289062 28.289062-28.289062c3.03125-3.136719 2.988281-8.128907-.097656-11.214844-3.085938-3.085938-8.074219-3.128906-11.214844-.097656l-28.285156 28.289062-28.289063-28.289062c-3.140625-3.03125-8.128906-2.988282-11.214843.097656-3.085938 3.085937-3.128907 8.078125-.097657 11.214844l28.289063 28.289062-28.289063 28.289062c-3.125 3.121094-3.125 8.1875 0 11.3125zm0 0"/></g></svg>