<?xml version="1.0" encoding="utf-8"?>
<!-- Generator: Adobe Illustrator 19.0.0, SVG Export Plug-In . SVG Version: 6.00 Build 0)  -->
<svg version="1.1" id="Layer_1" xmlns="http://www.w3.org/2000/svg" xmlns:xlink="http://www.w3.org/1999/xlink" x="0px" y="0px"
	 viewBox="0 0 612 792" style="enable-background:new 0 0 612 792;" xml:space="preserve">
<style type="text/css">
	.st0{fill:none;stroke:#000000;stroke-miterlimit:10;}
	.st1{fill:none;stroke:#000000;stroke-miterlimit:10;stroke-dasharray:4.0425,4.0425;}
</style>
<g id="XMLID_230_">
	<g id="XMLID_229_">
		<path id="XMLID_231_" class="st0" d="M308.6,397.4c0,0,4-5.5,9.4-1.3c0,0,1.7,1.6,2,4.9v10.1"/>
		<path id="XMLID_232_" class="st0" d="M320,400.2c0,0,3.6-6.1,9.1-2.1c0,0,2,1.5,2,5.5v7.2"/>
		<path id="XMLID_233_" class="st0" d="M331.1,402.7c0,0,3.2-3.7,6.9-2.6c3.7,1.1,4.4,5.2,4.4,6.5V436c0,0-2.9,16-22.4,15.9
			s-26.1-12.4-26.1-12.4l-11.2-22.6c0,0-7.2-10.5,4.6-10.1c0,0,5.3-0.1,9.7,8.1v-38.1c0,0,0.6-5,5.9-5.3c0,0,5-0.6,5.8,4.9v35.3"/>
	</g>
	<g id="XMLID_234_">
		<g id="XMLID_11_">
			<path id="XMLID_14_" class="st0" d="M284.7,381.4c-0.7,0-1.3,0-2-0.1"/>
			<path id="XMLID_13_" class="st1" d="M278.8,380.2c-4.9-2.2-8.4-7.2-8.4-13v-12.6c0-7.9,6.4-14.3,14.3-14.3h12.6
				c7.9,0,14.3,6.4,14.3,14.3v8.6"/>
			<line id="XMLID_12_" class="st0" x1="311.5" y1="365.2" x2="311.5" y2="367.2"/>
		</g>
	</g>
</g>
</svg>
