<?xml version="1.0" encoding="utf-8"?>
<!-- Generator: Adobe Illustrator 19.0.0, SVG Export Plug-In . SVG Version: 6.00 Build 0)  -->
<svg version="1.1" id="Layer_1" xmlns="http://www.w3.org/2000/svg" xmlns:xlink="http://www.w3.org/1999/xlink" x="0px" y="0px"
	 viewBox="0 0 612 792" style="enable-background:new 0 0 612 792;" xml:space="preserve">
<style type="text/css">
	.st0{fill:none;stroke:#000000;stroke-miterlimit:10;}
</style>
<g id="XMLID_187_">
	<path id="XMLID_160_" class="st0" d="M292.5,397.7h30.9c0,0,0.9-5-3.2-7.5l-6.3-2.7c0,0-2.3-0.5-1.8-5.3c0,0,2.4-2.5,2.8-4.9
		c0,0,1.4-0.6,1.6-2.3v-2.4c0,0-0.1-1.2-0.8-1.8v-5c0,0-0.4-5.7-8.1-5.4c0,0-7.2-0.3-7.4,5.7l0.1,4.3c0,0-0.9,1-0.8,1.8v3
		c0,0,0.3,1.6,1.1,1.9c0,0,0.6,2.8,2.6,5.1c0,0,0.6,4.4-2.5,5.4l-5.4,2.7C295.5,390.3,292,391.8,292.5,397.7z"/>
	<g id="XMLID_165_">
		<path id="XMLID_162_" class="st0" d="M333.3,397.7V379c0-4.9-4.9-4.4-4.9-4.4h-4.8"/>
		<polyline id="XMLID_163_" class="st0" points="327.5,393.3 333.4,397.7 339.1,393.3 		"/>
	</g>
	<g id="XMLID_180_">
		<line id="XMLID_181_" class="st0" x1="298.2" y1="417" x2="311.2" y2="417"/>
		<polyline id="XMLID_182_" class="st0" points="302.6,411.2 298.2,417 302.9,422.6 		"/>
	</g>
	<g id="XMLID_166_">
		<path id="XMLID_169_" class="st0" d="M281,397.7v-18.6c0-4.9,4.9-4.4,4.9-4.4h4.8"/>
		<polyline id="XMLID_168_" class="st0" points="286.3,380.7 290.8,374.9 286.3,369.5 		"/>
	</g>
	<g id="XMLID_176_">
		<rect id="XMLID_170_" x="269.9" y="402.7" class="st0" width="22.2" height="26.1"/>
		<g id="XMLID_172_">
			<line id="XMLID_173_" class="st0" x1="273.1" y1="415.8" x2="288.9" y2="415.8"/>
			<line id="XMLID_174_" class="st0" x1="273.1" y1="420.5" x2="288.9" y2="420.5"/>
			<line id="XMLID_175_" class="st0" x1="273.1" y1="425.1" x2="288.9" y2="425.1"/>
			<line id="XMLID_178_" class="st0" x1="273.1" y1="411.1" x2="288.9" y2="411.1"/>
			<line id="XMLID_179_" class="st0" x1="273.1" y1="406.4" x2="288.9" y2="406.4"/>
		</g>
	</g>
	<g id="XMLID_183_">
		<circle id="XMLID_186_" class="st0" cx="328.4" cy="418.3" r="10.2"/>
		<circle id="XMLID_185_" class="st0" cx="328.4" cy="418.3" r="4.6"/>
		<polygon id="XMLID_184_" class="st0" points="326.1,404.8 330.6,404.8 331.4,408.7 333.1,409.4 336.2,407.3 339.4,410.5 
			337.3,413.7 338.1,415.3 341.8,416 341.9,420.6 338.1,421.4 337.4,423 339.4,426.1 336.2,429.4 333.1,427.3 331.5,428 
			330.6,431.8 326.1,431.8 325.4,428 323.8,427.4 320.6,429.4 317.4,426.2 319.5,423.2 318.7,421.4 315,420.5 315,416.1 
			318.7,415.4 319.4,413.6 317.3,410.6 320.6,407.3 323.7,409.3 325.2,408.6 		"/>
	</g>
</g>
</svg>
