<?xml version="1.0" encoding="utf-8"?>
<!-- Generator: Adobe Illustrator 19.0.0, SVG Export Plug-In . SVG Version: 6.00 Build 0)  -->
<svg version="1.1" id="Layer_1" xmlns="http://www.w3.org/2000/svg" xmlns:xlink="http://www.w3.org/1999/xlink" x="0px" y="0px"
	 viewBox="0 0 612 792" style="enable-background:new 0 0 612 792;" xml:space="preserve">
<style type="text/css">
	.st0{fill:none;stroke:#000000;stroke-miterlimit:10;}
</style>
<g id="XMLID_241_">
	<rect id="XMLID_227_" x="259.8" y="352.9" class="st0" width="73.1" height="86.1"/>
	<line id="XMLID_225_" class="st0" x1="266.6" y1="418" x2="295.7" y2="418"/>
	<line id="XMLID_224_" class="st0" x1="266.6" y1="407.5" x2="295.7" y2="407.5"/>
	<line id="XMLID_223_" class="st0" x1="266.6" y1="396.9" x2="301.6" y2="396.9"/>
	<g id="XMLID_218_">
		<line id="XMLID_221_" class="st0" x1="295.1" y1="386.4" x2="319.7" y2="386.4"/>
		<line id="XMLID_220_" class="st0" x1="295.1" y1="375.8" x2="324.8" y2="375.8"/>
		<line id="XMLID_219_" class="st0" x1="295.1" y1="365.3" x2="324.8" y2="365.3"/>
	</g>
	<path id="XMLID_217_" class="st0" d="M269.3,387.2h20.6c0,0,0.6-3.3-2.1-5l-4.2-1.8c0,0-1.5-0.3-1.2-3.5c0,0,1.6-1.6,1.8-3.3
		c0,0,0.9-0.4,1.1-1.6v-1.6c0,0-0.1-0.8-0.5-1.2V366c0,0-0.3-3.8-5.4-3.6c0,0-4.8-0.2-4.9,3.8l0,2.8c0,0-0.6,0.6-0.6,1.2v2
		c0,0,0.2,1.1,0.8,1.3c0,0,0.4,1.8,1.7,3.4c0,0,0.4,2.9-1.7,3.6l-3.6,1.8C271.2,382.4,268.9,383.3,269.3,387.2z"/>
	<g id="XMLID_228_">
		
			<rect id="XMLID_216_" x="300.2" y="390.2" transform="matrix(0.7071 -0.7071 0.7071 0.7071 -184.1235 345.5789)" class="st0" width="49.8" height="9.7"/>
		<path id="XMLID_222_" class="st0" d="M351,376l-4.9,4.9l-6.9-6.9l4.9-4.9c0.6-0.6,1.5-0.6,2,0l4.8,4.8
			C351.6,374.5,351.6,375.4,351,376z"/>
		<polygon id="XMLID_226_" class="st0" points="307.5,412.6 310.9,416.1 304.6,418.9 298.4,421.8 301.2,415.5 304.1,409.2 		"/>
	</g>
</g>
</svg>
