<?xml version="1.0" encoding="utf-8"?>
<!-- Generator: Adobe Illustrator 19.0.0, SVG Export Plug-In . SVG Version: 6.00 Build 0)  -->
<svg version="1.1" id="Layer_1" xmlns="http://www.w3.org/2000/svg" xmlns:xlink="http://www.w3.org/1999/xlink" x="0px" y="0px"
	 viewBox="0 0 612 792" style="enable-background:new 0 0 612 792;" xml:space="preserve">
<style type="text/css">
	.st0{fill:none;stroke:#000000;stroke-miterlimit:10;}
</style>
<g id="XMLID_6_">
	<path id="XMLID_235_" class="st0" d="M314.3,341.8h35.2c1.2,0,2.1,0.9,2.1,2.1v33.9c0,1.2-0.9,2.1-2.1,2.1h-56.1
		c-1.2,0-2.1-0.9-2.1-2.1v-16.7"/>
	<path id="XMLID_236_" class="st0" d="M333.3,387.5h-23.6v-2.9c0-0.6,0.5-1.1,1.1-1.1h21.5c0.6,0,1.1,0.5,1.1,1.1V387.5z"/>
	<g id="XMLID_237_">
		<line id="XMLID_238_" class="st0" x1="314.5" y1="379.9" x2="314.5" y2="383.5"/>
		<line id="XMLID_239_" class="st0" x1="328.5" y1="379.9" x2="328.5" y2="383.5"/>
	</g>
	<line id="XMLID_243_" class="st0" x1="291.4" y1="372.6" x2="351.7" y2="372.6"/>
	<line id="XMLID_244_" class="st0" x1="293.3" y1="376.4" x2="299" y2="376.4"/>
	<line id="XMLID_240_" class="st0" x1="300.7" y1="376.4" x2="303.5" y2="376.4"/>
	<g id="XMLID_260_">
		<g id="XMLID_250_">
			<line id="XMLID_254_" class="st0" x1="313.8" y1="351.8" x2="328.1" y2="351.8"/>
			<line id="XMLID_253_" class="st0" x1="313.8" y1="356.3" x2="328.1" y2="356.3"/>
			<line id="XMLID_252_" class="st0" x1="313.8" y1="360.7" x2="328.1" y2="360.7"/>
			<line id="XMLID_251_" class="st0" x1="313.8" y1="365.1" x2="328.1" y2="365.1"/>
		</g>
		<g id="XMLID_255_">
			<line id="XMLID_259_" class="st0" x1="332.2" y1="351.8" x2="346.6" y2="351.8"/>
			<line id="XMLID_258_" class="st0" x1="332.2" y1="356.3" x2="346.6" y2="356.3"/>
			<line id="XMLID_257_" class="st0" x1="332.2" y1="360.7" x2="346.6" y2="360.7"/>
			<line id="XMLID_256_" class="st0" x1="332.2" y1="365.1" x2="346.6" y2="365.1"/>
		</g>
	</g>
	<g id="XMLID_246_">
		<circle id="XMLID_261_" class="st0" cx="296.9" cy="344.4" r="17.6"/>
		<path id="XMLID_245_" class="st0" d="M283,355.2l-26.5,16.1c-0.3,0.2-0.7,0.1-0.9-0.2l-1.8-3c-0.2-0.3-0.1-0.7,0.2-0.9l26.5-16.1
			L283,355.2z"/>
		<line id="XMLID_247_" class="st0" x1="274.2" y1="354.9" x2="276.7" y2="359"/>
	</g>
	<g id="XMLID_249_">
		<g id="XMLID_75_">
			<path id="XMLID_83_" d="M288.4,338.9h1.8v6.9c0,1.1-0.1,1.9-0.3,2.5c-0.2,0.5-0.6,1-1,1.3c-0.4,0.3-1,0.4-1.6,0.4
				c-0.9,0-1.5-0.3-2-0.9c-0.5-0.6-0.7-1.5-0.7-2.7l1.7-0.2c0,0.6,0.1,1.1,0.2,1.4c0.2,0.4,0.5,0.6,0.9,0.6c0.4,0,0.7-0.1,0.8-0.4
				c0.2-0.3,0.3-0.9,0.3-1.8V338.9z"/>
			<path id="XMLID_80_" d="M291.7,344.4c0-1.3,0.2-2.4,0.6-3.2c0.4-0.8,0.9-1.5,1.5-1.9c0.6-0.4,1.4-0.6,2.3-0.6
				c1.3,0,2.3,0.5,3.1,1.5c0.8,1,1.2,2.4,1.2,4.2c0,1.8-0.4,3.3-1.3,4.3c-0.7,0.9-1.8,1.4-3.1,1.4c-1.3,0-2.3-0.4-3.1-1.3
				C292.2,347.6,291.7,346.2,291.7,344.4z M293.6,344.4c0,1.3,0.2,2.2,0.7,2.8c0.5,0.6,1.1,0.9,1.8,0.9c0.7,0,1.3-0.3,1.8-0.9
				c0.5-0.6,0.7-1.6,0.7-2.9c0-1.3-0.2-2.2-0.7-2.8c-0.5-0.6-1.1-0.9-1.8-0.9s-1.3,0.3-1.8,0.9C293.8,342.1,293.6,343.1,293.6,344.4
				z"/>
			<path id="XMLID_76_" d="M301.8,338.9h3.6c1,0,1.7,0.1,2.1,0.3c0.4,0.2,0.7,0.5,1,0.9c0.3,0.5,0.4,1,0.4,1.5c0,0.5-0.1,1-0.4,1.4
				s-0.5,0.7-0.9,0.9c0.5,0.2,0.9,0.5,1.2,1c0.3,0.5,0.5,1,0.5,1.7c0,0.8-0.2,1.5-0.6,2c-0.4,0.5-0.8,0.9-1.4,1
				c-0.4,0.1-1.2,0.1-2.5,0.1h-3V338.9z M303.6,340.7v2.5h1.2c0.7,0,1.2,0,1.3,0c0.3-0.1,0.5-0.2,0.7-0.4c0.2-0.2,0.3-0.5,0.3-0.9
				c0-0.3-0.1-0.6-0.2-0.8c-0.1-0.2-0.3-0.3-0.5-0.4c-0.2,0-0.8-0.1-1.7-0.1H303.6z M303.6,345.1v2.9h1.7c0.7,0,1.2,0,1.4-0.1
				c0.2-0.1,0.4-0.2,0.5-0.5c0.1-0.2,0.2-0.5,0.2-0.9c0-0.4-0.1-0.7-0.2-0.9c-0.2-0.2-0.4-0.4-0.6-0.5c-0.3-0.1-0.8-0.1-1.5-0.1
				H303.6z"/>
		</g>
	</g>
</g>
</svg>
