<?xml version="1.0" encoding="utf-8"?>
<!-- Generator: Adobe Illustrator 19.0.0, SVG Export Plug-In . SVG Version: 6.00 Build 0)  -->
<svg version="1.1" id="Layer_1" xmlns="http://www.w3.org/2000/svg" xmlns:xlink="http://www.w3.org/1999/xlink" x="0px" y="0px"
	 viewBox="0 0 612 792" style="enable-background:new 0 0 612 792;" xml:space="preserve">
<style type="text/css">
	.st0{fill:none;stroke:#000000;stroke-miterlimit:10;}
</style>
<g id="XMLID_215_">
	<rect id="XMLID_204_" x="269.9" y="354" class="st0" width="72" height="84.9"/>
	<g id="XMLID_213_">
		<line id="XMLID_206_" class="st0" x1="276.6" y1="428.5" x2="333.9" y2="428.5"/>
		<line id="XMLID_205_" class="st0" x1="276.6" y1="418.1" x2="333.9" y2="418.1"/>
		<line id="XMLID_207_" class="st0" x1="276.6" y1="407.7" x2="333.9" y2="407.7"/>
		<line id="XMLID_208_" class="st0" x1="276.6" y1="397.3" x2="333.9" y2="397.3"/>
	</g>
	<g id="XMLID_212_">
		<line id="XMLID_209_" class="st0" x1="304.6" y1="387" x2="333.9" y2="387"/>
		<line id="XMLID_210_" class="st0" x1="304.6" y1="376.6" x2="333.9" y2="376.6"/>
		<line id="XMLID_211_" class="st0" x1="304.6" y1="366.2" x2="333.9" y2="366.2"/>
	</g>
	<path id="XMLID_214_" class="st0" d="M279.2,387.8h20.3c0,0,0.6-3.3-2.1-4.9l-4.1-1.8c0,0-1.5-0.3-1.2-3.4c0,0,1.6-1.6,1.8-3.2
		c0,0,0.9-0.4,1-1.5v-1.6c0,0-0.1-0.8-0.5-1.2v-3.3c0,0-0.2-3.7-5.3-3.5c0,0-4.7-0.2-4.8,3.7l0,2.8c0,0-0.6,0.6-0.6,1.2v2
		c0,0,0.2,1,0.7,1.2c0,0,0.4,1.8,1.7,3.4c0,0,0.4,2.9-1.6,3.5l-3.5,1.8C281.1,383,278.9,383.9,279.2,387.8z"/>
</g>
</svg>
