<?xml version="1.0" encoding="iso-8859-1"?>
<!-- Generator: Adobe Illustrator 19.0.0, SVG Export Plug-In . SVG Version: 6.00 Build 0)  -->
<svg version="1.1" id="Layer_1" xmlns="http://www.w3.org/2000/svg" xmlns:xlink="http://www.w3.org/1999/xlink" x="0px" y="0px"
	 viewBox="0 0 512 512" style="enable-background:new 0 0 512 512;" xml:space="preserve">
<g>
	<g>
		<path d="M236.259,289.938l-67.472-65.248c-6.351-6.143-16.481-5.974-22.624,0.379c-6.143,6.352-5.973,16.481,0.379,22.624
			l55.576,53.744l-55.573,53.714c-6.354,6.142-6.526,16.271-0.385,22.625c3.139,3.247,7.319,4.88,11.506,4.88
			c4.003,0,8.012-1.493,11.118-4.495l67.472-65.216c3.118-3.015,4.879-7.166,4.88-11.503
			C241.137,297.105,239.377,292.954,236.259,289.938z"/>
	</g>
</g>
<g>
	<g>
		<path d="M352,360h-80c-8.837,0-16,7.163-16,16c0,8.837,7.163,16,16,16h80c8.837,0,16-7.163,16-16C368,367.163,360.837,360,352,360
			z"/>
	</g>
</g>
<g>
	<g>
		<path d="M497.429,64.333C489.637,58.647,479.442,56,465.344,56h-418c-14.085,0-24.328,2.603-32.237,8.191
			C8.215,69.061,0,78.651,0,96.688V440c0,8.837,7.164,16,16,16h480c8.837,0,16-7.163,16-16V96.688
			C512,82.273,507.098,71.387,497.429,64.333z M480,424H32V96.688c0-1.961,0.205-5.396,1.572-6.363
			C34.561,89.626,37.884,88,47.343,88h418c9.494,0,12.522,1.672,13.224,2.184c1.057,0.77,1.433,3.865,1.433,6.504V424z"/>
	</g>
</g>
<g>
	<g>
		<path d="M496,152H16c-8.836,0-16,7.164-16,16s7.164,16,16,16h480c8.837,0,16-7.164,16-16S504.837,152,496,152z"/>
	</g>
</g>
<g>
	<g>
		<path d="M74.32,99.02c-2.97-2.98-7.1-4.68-11.31-4.68c-4.22,0-8.34,1.7-11.32,4.68c-2.97,2.98-4.68,7.1-4.68,11.32
			c0,4.21,1.71,8.33,4.68,11.31c2.98,2.98,7.11,4.69,11.32,4.69s8.33-1.71,11.31-4.69c2.98-2.98,4.69-7.1,4.69-11.31
			C79.01,106.12,77.3,102,74.32,99.02z"/>
	</g>
</g>
<g>
	<g>
		<path d="M118.27,99.02c-2.97-2.98-7.1-4.68-11.31-4.68c-4.21,0-8.34,1.7-11.31,4.68c-2.98,2.98-4.69,7.1-4.69,11.32
			c0,4.21,1.71,8.33,4.69,11.31c2.97,2.98,7.1,4.69,11.31,4.69c4.21,0,8.34-1.71,11.31-4.69c2.98-2.98,4.69-7.1,4.69-11.31
			C122.96,106.12,121.25,102,118.27,99.02z"/>
	</g>
</g>
<g>
	<g>
		<path d="M162.23,99.02c-2.98-2.98-7.11-4.68-11.32-4.68c-4.21,0-8.33,1.7-11.31,4.68c-2.98,2.98-4.69,7.1-4.69,11.32
			c0,4.21,1.71,8.33,4.69,11.31c2.98,2.98,7.1,4.69,11.31,4.69c4.21,0,8.34-1.71,11.32-4.69c2.97-2.98,4.68-7.1,4.68-11.31
			C166.91,106.12,165.2,102,162.23,99.02z"/>
	</g>
</g>
<g>
</g>
<g>
</g>
<g>
</g>
<g>
</g>
<g>
</g>
<g>
</g>
<g>
</g>
<g>
</g>
<g>
</g>
<g>
</g>
<g>
</g>
<g>
</g>
<g>
</g>
<g>
</g>
<g>
</g>
</svg>
