<svg id="Capa_1" enable-background="new 0 0 512.043 512.043" height="512" viewBox="0 0 512.043 512.043" width="512" xmlns="http://www.w3.org/2000/svg"><path fill="#fff" d="m128.688 316.735h-51.442c-6.86 0-12.905-3.87-15.775-10.101-2.871-6.23-1.886-13.34 2.571-18.555l240.964-281.923c5.381-6.296 13.926-7.944 21.263-4.102 7.337 3.843 10.848 11.806 8.736 19.815l-26.319 99.824c-1.055 4.006-5.159 6.398-9.164 5.34-4.005-1.056-6.396-5.159-5.34-9.164l26.319-99.824c.319-1.212-.082-2.122-1.192-2.704-1.109-.581-2.086-.393-2.9.56l-240.965 281.925c-.814.953-.64 1.902-.351 2.531.29.628.898 1.378 2.152 1.378h51.442c4.142 0 7.5 3.358 7.5 7.5s-3.357 7.5-7.499 7.5z"/><path fill="#fff" d="m336.021 210.307h-56.478c-2.326 0-4.521-1.08-5.941-2.922s-1.904-4.24-1.311-6.49l13.258-50.287c1.055-4.005 5.155-6.399 9.164-5.34 4.005 1.056 6.396 5.159 5.34 9.164l-10.776 40.875h46.744c4.142 0 7.5 3.358 7.5 7.5s-3.358 7.5-7.5 7.5z"/><path fill="#fff" d="m193.961 512.043c-2.75 0-5.546-.672-8.187-2.055-7.337-3.843-10.848-11.806-8.736-19.815l45.728-173.438h-60.078c-4.142 0-7.5-3.358-7.5-7.5s3.358-7.5 7.5-7.5h69.812c2.326 0 4.521 1.08 5.941 2.922s1.904 4.24 1.311 6.49l-48.21 182.85c-.319 1.212.082 2.122 1.192 2.704 1.109.58 2.086.393 2.901-.56l240.964-281.924c.814-.953.64-1.902.351-2.531-.29-.628-.898-1.378-2.152-1.378h-64.775c-4.142 0-7.5-3.358-7.5-7.5s3.358-7.5 7.5-7.5h64.775c6.86 0 12.905 3.87 15.775 10.101 2.871 6.23 1.886 13.34-2.571 18.555l-240.965 281.923c-3.444 4.03-8.186 6.155-13.076 6.156z"/></svg>