<?xml version="1.0" encoding="utf-8"?>
<!-- Generator: Adobe Illustrator 19.0.0, SVG Export Plug-In . SVG Version: 6.00 Build 0)  -->
<svg version="1.1" id="Layer_1" xmlns="http://www.w3.org/2000/svg" xmlns:xlink="http://www.w3.org/1999/xlink" x="0px" y="0px"
	 viewBox="0 0 230 90" style="enable-background:new 0 0 230 90;" xml:space="preserve">
<style type="text/css">
	.st0{fill:#0E9C78;}
	.st1{fill:#A7A9AC;}
	.st2{clip-path:url(#XMLID_9_);}
</style>
<g id="XMLID_7_">
	<g id="XMLID_704_">
		<g id="XMLID_173_">
			<path id="XMLID_188_" class="st0" d="M31,67.3c0,0.3-0.2,0.6-0.5,1.1c-3.2,3.8-7.3,5.6-12.6,5.6c-5.3,0-9.7-1.8-13-5.5
				C1.6,65,0,60.6,0,55.2c0-5.2,1.6-9.6,4.8-13.3c3.3-3.8,7.5-5.7,12.6-5.7c5.6,0,9.9,1.7,13.1,5.1c0.3,0.4,0.5,0.7,0.5,1
				c0,0.3-0.6,1.5-1.8,3.6c-1.2,2.1-1.9,3.3-2.2,3.5c-0.1,0.1-0.3,0.2-0.5,0.2c-0.1,0-0.5-0.3-1.3-1c-0.9-0.8-1.8-1.5-2.7-1.9
				c-1.4-0.7-2.8-1-4.2-1c-2.5,0-4.5,0.9-6,2.8c-1.4,1.7-2.1,3.9-2.1,6.5c0,2.6,0.7,4.8,2.1,6.6c1.5,1.9,3.5,2.9,6,2.9
				c1.5,0,2.9-0.3,4.2-1c0.9-0.4,1.8-1,2.7-1.8c0.8-0.7,1.2-1,1.3-1c0.2,0,0.3,0.1,0.5,0.3c0.3,0.3,1,1.4,2.2,3.2
				C30.4,66.1,31,67.1,31,67.3z"/>
			<path id="XMLID_186_" class="st0" d="M59.2,54.5l-0.1,17.7c0,0.6-0.2,0.9-0.7,1c-0.5,0.1-1.8,0.1-3.8,0.1c-1.9,0-3.2-0.1-3.9-0.2
				c-0.6-0.1-0.8-0.5-0.8-1.1c0-1.5,0-3.7,0.1-6.7c0.1-3,0.1-5.2,0.1-6.7c0-2-1-3-3.1-3c-0.7,0-1.5,0.3-2.4,0.8
				c-1,0.6-1.5,1.2-1.5,1.9v6.4c0,0.8,0,2.1,0.1,3.7c0,1.7,0.1,2.9,0.1,3.7c0,0.6-0.3,1-0.8,1.1c-0.5,0.1-2,0.1-4.5,0.1
				c-1.4,0-2.4-0.1-3-0.2C34.3,73,34,72.7,34,72.2c0-1.4,0-3.4,0-6.1c0-2.7,0-4.8,0-6.1c0-5.6-0.1-10.2-0.2-13.9
				c-0.1-1.3-0.1-2.6-0.1-3.9c-0.1-1.5-0.2-2.8-0.5-3.8c-0.1-0.2-0.1-0.4-0.1-0.5c0-0.3,0.1-0.4,0.4-0.5c0.5-0.2,1.3-0.2,2.3-0.3
				c1.4-0.1,2.2-0.1,2.4-0.1l4.7-0.5c0.3,0,0.4,0.2,0.4,0.5c0,0.5,0,1.3-0.1,2.2c-0.1,1.1-0.1,1.8-0.1,2.2C43,45.3,43,48.4,43,50.7
				c0,0.3,0.1,0.5,0.3,0.5c0,0,0.5-0.3,1.3-0.9c1-0.7,1.9-1.3,2.9-1.7c1.4-0.6,2.7-0.9,3.9-0.9c2.2,0,4,0.6,5.5,1.7
				C58.4,50.7,59.2,52.3,59.2,54.5z"/>
			<path id="XMLID_182_" class="st0" d="M88.2,60.5c0,3.9-1.2,7.1-3.6,9.5c-2.4,2.4-5.5,3.7-9.4,3.7c-3.8,0-6.9-1.2-9.3-3.6
				c-2.4-2.4-3.7-5.5-3.7-9.3c0-4,1.2-7.2,3.5-9.7c2.3-2.5,5.5-3.7,9.5-3.7c3.9,0,7,1.2,9.4,3.6C87,53.4,88.2,56.6,88.2,60.5z
				 M79.7,60.5c0-1.4-0.4-2.5-1.3-3.6c-0.8-1-1.9-1.6-3.3-1.6c-1.4,0-2.5,0.5-3.3,1.6c-0.8,1-1.2,2.2-1.2,3.5c0,1.4,0.4,2.6,1.2,3.6
				c0.9,1.1,2,1.6,3.3,1.6c1.3,0,2.4-0.5,3.3-1.6C79.3,63.1,79.7,61.9,79.7,60.5z"/>
			<path id="XMLID_179_" class="st0" d="M106.3,52.3c0,0.2-0.1,0.4-0.4,0.7c-0.5-0.1-1-0.2-1.4-0.2c-1,0-1.9,0.2-2.5,0.7
				c-0.8,0.5-1.2,1.2-1.2,2.2c0,0.6,0.4,1.4,1.3,2.3c1.3,1.4,2.1,2.3,2.4,2.8c0.9,1.3,1.3,2.7,1.3,4.2c0,0.9-0.2,1.8-0.5,2.8
				c-0.4,1.1-0.9,1.9-1.5,2.4c-1.3,1.1-2.8,2-4.4,2.8c-1.8,0.8-3.5,1.2-5.1,1.2c-0.3,0-1.1-0.9-2.3-2.8c-1.2-1.9-1.8-3-1.8-3.4
				c0-0.2,0.1-0.2,0.3-0.3c1.2-0.2,2.4-0.4,3.6-0.7c1.5-0.5,2.3-1.3,2.3-2.4c0-0.8-0.4-1.6-1.3-2.6c-1.6-1.7-2.4-2.6-2.4-2.8
				c-0.9-1.2-1.3-2.5-1.3-3.9c0-2.6,1.3-4.8,3.9-6.6c2.3-1.6,4.8-2.4,7.5-2.4c0.3,0,1,0.9,2,2.8C105.8,50.9,106.3,52,106.3,52.3z"/>
			<path id="XMLID_176_" class="st0" d="M133.6,59.2c0,1.7-0.6,2.7-1.7,3c-0.2,0-2,0.2-5.3,0.6c-2,0.2-5,0.5-9.1,0.8
				c0.2,1.1,1,2,2.2,2.5c1,0.5,2.1,0.7,3.4,0.7c1.5,0,3.1-0.4,4.6-1.2c0.7-0.4,1.3-0.8,2-1.2c0.4,0.2,1,1,1.8,2.6
				c0.8,1.6,1.3,2.6,1.3,3c0,0.1-0.1,0.3-0.4,0.6c-2.1,2.2-5.3,3.4-9.7,3.4c-4.1,0-7.4-1.2-9.9-3.6c-2.6-2.4-3.9-5.6-3.9-9.7
				c0-3.9,1.1-7.2,3.4-9.7c2.4-2.6,5.5-3.9,9.4-3.9c3.3,0,6.1,1.2,8.4,3.6C132.4,53,133.6,55.9,133.6,59.2z M124.6,57.6
				c0-1.1-0.4-2-1.1-2.8c-0.8-0.8-1.7-1.2-2.7-1.2c-1.1,0-2,0.5-2.7,1.4c-0.7,0.8-1,1.8-1,3c0,0.5,0.2,0.7,0.7,0.7
				c1.3,0,3.2-0.2,5.9-0.6C124.3,57.9,124.6,57.8,124.6,57.6z"/>
			<path id="XMLID_174_" class="st0" d="M162,72.4c0,0.5-0.2,0.7-0.7,0.8c-0.5,0.1-1.7,0.1-3.8,0.1c-2.2,0-3.5-0.1-4-0.2
				c-0.5-0.1-0.8-0.5-0.8-1.1c0-0.8,0-2,0.1-3.7c0.1-1.6,0.1-2.9,0.1-3.7c0-0.6,0-1.6-0.1-2.8c0-1.3-0.1-2.2-0.1-2.8
				c0-2.3-1-3.5-3.1-3.5c-0.7,0-1.4,0.3-2.3,0.9c-1,0.7-1.4,1.3-1.4,1.9v13.9c0,0.6-0.3,0.9-0.8,1c-0.6,0.1-1.8,0.1-3.7,0.1
				c-2,0-3.3-0.1-3.9-0.2c-0.5-0.1-0.8-0.4-0.8-0.8c0-1.3,0-3.4,0-6c0-2.7,0-4.7,0-6.1c0-4.3-0.3-7.6-1-10.1c0-0.2-0.1-0.3-0.1-0.4
				c0-0.3,0.1-0.5,0.4-0.6c1.1-0.1,2.5-0.3,4.3-0.6c2.7-0.5,4.3-0.8,4.6-0.8c0.2,0,0.3,0.6,0.4,1.7c0.1,1.2,0.2,1.7,0.4,1.7
				c-0.2,0,0.7-0.6,2.8-1.8c2-1.2,3.8-1.8,5.3-1.8c2.2,0,4,0.5,5.5,1.5c1.6,1.2,2.4,2.8,2.4,4.9v8.2c0,1.1,0,2.8,0,5
				C162,69.6,162,71.3,162,72.4z"/>
		</g>
	</g>
	<g id="XMLID_165_">
		<g id="XMLID_439_">
			<path id="XMLID_487_" class="st1" d="M50.2,86.1c-0.4,0.6-0.8,1-1.3,1.3c-0.5,0.3-1.1,0.4-1.8,0.4c-0.6,0-1.1-0.1-1.5-0.3
				c-0.4-0.2-0.7-0.6-1-1c-0.2-0.4-0.3-0.9-0.3-1.5c0-0.8,0.2-1.5,0.5-2.1s0.8-1.1,1.4-1.4c0.6-0.3,1.2-0.5,2-0.5
				c0.7,0,1.3,0.1,1.7,0.4c0.5,0.3,0.8,0.7,0.9,1.2l-0.8,0.3c-0.1-0.4-0.3-0.6-0.7-0.8c-0.3-0.2-0.7-0.3-1.2-0.3
				c-0.6,0-1.1,0.1-1.5,0.4c-0.4,0.3-0.8,0.7-1,1.2c-0.2,0.5-0.4,1.1-0.4,1.7c0,0.6,0.2,1.1,0.5,1.5c0.3,0.4,0.8,0.5,1.4,0.5
				c0.5,0,0.9-0.1,1.3-0.3c0.4-0.2,0.8-0.6,1.1-1L50.2,86.1z"/>
			<path id="XMLID_485_" class="st1" d="M52.9,83.5c0.3-0.4,0.5-0.6,0.8-0.8c0.3-0.1,0.6-0.2,0.9-0.2c0.5,0,0.8,0.1,1,0.3
				c0.2,0.2,0.4,0.6,0.4,1c0,0.2,0,0.5-0.1,0.8l-0.6,3.1h-0.9l0.6-3c0.1-0.3,0.1-0.5,0.1-0.7c0-0.5-0.3-0.8-0.8-0.8
				c-0.4,0-0.7,0.2-1,0.5s-0.5,0.7-0.6,1.2l-0.6,2.9h-0.8l1.4-7h0.8l-0.4,1.8C53,82.9,53,83.2,52.9,83.5L52.9,83.5z"/>
			<path id="XMLID_482_" class="st1" d="M61.9,84.5c0,0.4-0.1,0.8-0.2,1.3c-0.1,0.4-0.3,0.8-0.5,1.1c-0.2,0.3-0.5,0.5-0.9,0.7
				c-0.3,0.2-0.7,0.2-1.2,0.2c-0.6,0-1.1-0.2-1.5-0.6c-0.4-0.4-0.5-0.9-0.5-1.5c0-0.6,0.1-1.2,0.3-1.7c0.2-0.5,0.5-0.9,0.9-1.1
				c0.4-0.3,0.9-0.4,1.4-0.4c0.7,0,1.2,0.2,1.5,0.5C61.7,83.4,61.9,83.9,61.9,84.5z M61,84.5c0-0.9-0.4-1.3-1.2-1.3
				c-0.4,0-0.8,0.1-1,0.3s-0.5,0.5-0.6,1c-0.1,0.4-0.2,0.9-0.2,1.3c0,0.5,0.1,0.8,0.3,1.1c0.2,0.2,0.5,0.4,0.9,0.4
				c0.3,0,0.6-0.1,0.8-0.2c0.2-0.1,0.4-0.3,0.5-0.5c0.1-0.2,0.3-0.5,0.4-0.9S61,84.9,61,84.5z"/>
			<path id="XMLID_479_" class="st1" d="M67.6,84.5c0,0.4-0.1,0.8-0.2,1.3c-0.1,0.4-0.3,0.8-0.5,1.1c-0.2,0.3-0.5,0.5-0.9,0.7
				c-0.3,0.2-0.7,0.2-1.2,0.2c-0.6,0-1.1-0.2-1.5-0.6c-0.4-0.4-0.5-0.9-0.5-1.5c0-0.6,0.1-1.2,0.3-1.7c0.2-0.5,0.5-0.9,0.9-1.1
				c0.4-0.3,0.9-0.4,1.4-0.4c0.7,0,1.2,0.2,1.5,0.5C67.4,83.4,67.6,83.9,67.6,84.5z M66.7,84.5c0-0.9-0.4-1.3-1.2-1.3
				c-0.4,0-0.8,0.1-1,0.3c-0.3,0.2-0.5,0.5-0.6,1c-0.1,0.4-0.2,0.9-0.2,1.3c0,0.5,0.1,0.8,0.3,1.1c0.2,0.2,0.5,0.4,0.9,0.4
				c0.3,0,0.6-0.1,0.8-0.2c0.2-0.1,0.4-0.3,0.5-0.5c0.1-0.2,0.3-0.5,0.4-0.9C66.7,85.3,66.7,84.9,66.7,84.5z"/>
			<path id="XMLID_477_" class="st1" d="M72.5,86.2c0,0.5-0.2,0.9-0.6,1.2c-0.4,0.3-1,0.4-1.7,0.4c-0.5,0-1-0.1-1.3-0.3
				c-0.3-0.2-0.5-0.5-0.7-0.9l0.7-0.3c0.1,0.3,0.3,0.5,0.5,0.6c0.2,0.1,0.5,0.2,0.9,0.2c0.4,0,0.8-0.1,1-0.2
				c0.2-0.2,0.3-0.4,0.3-0.7c0-0.2-0.1-0.4-0.2-0.5c-0.2-0.1-0.5-0.3-1-0.4c-0.4-0.1-0.7-0.3-0.9-0.4c-0.2-0.1-0.4-0.3-0.5-0.4
				c-0.1-0.2-0.2-0.4-0.2-0.6c0-0.5,0.2-0.8,0.5-1.1c0.4-0.2,0.9-0.4,1.5-0.4c1.1,0,1.7,0.4,1.9,1.2l-0.8,0.1
				c-0.1-0.2-0.2-0.4-0.4-0.5c-0.2-0.1-0.4-0.2-0.8-0.2c-0.4,0-0.7,0.1-0.9,0.2c-0.2,0.1-0.3,0.3-0.3,0.5c0,0.1,0,0.2,0.1,0.3
				c0.1,0.1,0.2,0.2,0.3,0.2c0.1,0.1,0.4,0.2,0.9,0.3c0.4,0.1,0.7,0.3,0.9,0.4c0.2,0.1,0.4,0.3,0.5,0.5C72.5,85.8,72.5,86,72.5,86.2
				z"/>
			<path id="XMLID_474_" class="st1" d="M74.7,85.3c0,0.1,0,0.3,0,0.5c0,0.4,0.1,0.7,0.3,1s0.5,0.3,0.9,0.3c0.3,0,0.6-0.1,0.8-0.2
				s0.4-0.4,0.6-0.6l0.7,0.3c-0.2,0.4-0.5,0.7-0.9,0.9c-0.4,0.2-0.8,0.3-1.3,0.3c-0.6,0-1.1-0.2-1.5-0.5s-0.5-0.8-0.5-1.5
				c0-0.6,0.1-1.2,0.3-1.7c0.2-0.5,0.5-0.9,0.9-1.2c0.4-0.3,0.9-0.4,1.4-0.4c0.6,0,1.1,0.2,1.5,0.5c0.4,0.3,0.5,0.8,0.5,1.4
				c0,0.3,0,0.7-0.1,1H74.7z M77.6,84.7l0-0.3c0-0.4-0.1-0.7-0.3-0.9c-0.2-0.2-0.5-0.3-0.9-0.3c-0.4,0-0.8,0.1-1.1,0.4
				c-0.3,0.3-0.5,0.6-0.6,1.1H77.6z"/>
			<path id="XMLID_472_" class="st1" d="M82.3,89.7c-0.2,0-0.4,0-0.6-0.1l0.1-0.6c0.1,0,0.3,0,0.4,0c0.3,0,0.6-0.1,0.8-0.3
				c0.2-0.2,0.5-0.5,0.7-0.9l0.1-0.2l-1-5h0.9l0.5,2.8c0,0.3,0.1,0.5,0.1,0.8c0,0.3,0.1,0.5,0.1,0.6c0-0.1,0.1-0.2,0.1-0.3
				c0-0.1,0.8-1.4,2.1-3.9h0.9l-2.9,5.1c-0.3,0.6-0.6,1-0.8,1.3c-0.2,0.2-0.4,0.4-0.7,0.5C82.9,89.7,82.6,89.7,82.3,89.7z"/>
			<path id="XMLID_469_" class="st1" d="M92.5,84.5c0,0.4-0.1,0.8-0.2,1.3c-0.1,0.4-0.3,0.8-0.5,1.1c-0.2,0.3-0.5,0.5-0.9,0.7
				s-0.7,0.2-1.2,0.2c-0.6,0-1.1-0.2-1.5-0.6c-0.4-0.4-0.5-0.9-0.5-1.5c0-0.6,0.1-1.2,0.3-1.7c0.2-0.5,0.5-0.9,0.9-1.1
				c0.4-0.3,0.9-0.4,1.4-0.4c0.7,0,1.2,0.2,1.5,0.5C92.3,83.4,92.5,83.9,92.5,84.5z M91.6,84.5c0-0.9-0.4-1.3-1.2-1.3
				c-0.4,0-0.8,0.1-1,0.3c-0.3,0.2-0.5,0.5-0.6,1c-0.1,0.4-0.2,0.9-0.2,1.3c0,0.5,0.1,0.8,0.3,1.1c0.2,0.2,0.5,0.4,0.9,0.4
				c0.3,0,0.6-0.1,0.8-0.2c0.2-0.1,0.4-0.3,0.5-0.5c0.1-0.2,0.3-0.5,0.4-0.9C91.5,85.3,91.6,84.9,91.6,84.5z"/>
			<path id="XMLID_467_" class="st1" d="M95.1,82.6l-0.6,3c-0.1,0.3-0.1,0.5-0.1,0.7c0,0.5,0.3,0.8,0.8,0.8c0.4,0,0.7-0.2,1-0.5
				s0.5-0.7,0.6-1.2l0.6-2.9h0.8l-0.8,4c-0.1,0.3-0.1,0.7-0.2,1.1h-0.8c0,0,0-0.2,0-0.4c0-0.2,0.1-0.4,0.1-0.5h0
				c-0.3,0.4-0.5,0.6-0.8,0.8s-0.6,0.2-0.9,0.2c-0.5,0-0.8-0.1-1-0.3c-0.2-0.2-0.4-0.6-0.4-1c0-0.2,0-0.5,0.1-0.8l0.6-3.1H95.1z"/>
			<path id="XMLID_465_" class="st1" d="M102.3,83.3c-0.1,0-0.3-0.1-0.4-0.1c-0.3,0-0.6,0.2-0.9,0.5c-0.3,0.3-0.4,0.8-0.5,1.3
				l-0.5,2.7H99l0.8-3.9l0.1-0.6l0.1-0.5h0.8l-0.2,1h0c0.2-0.4,0.4-0.7,0.6-0.9c0.2-0.2,0.4-0.3,0.7-0.3c0.1,0,0.3,0,0.4,0.1
				L102.3,83.3z"/>
			<path id="XMLID_462_" class="st1" d="M109,82.5c0.5,0,0.9,0.1,1.2,0.4c0.3,0.3,0.4,0.7,0.4,1.2c0,0.6-0.1,1.3-0.3,1.9
				c-0.2,0.6-0.5,1-0.8,1.3c-0.3,0.3-0.8,0.4-1.3,0.4c-0.4,0-0.7-0.1-0.9-0.2c-0.2-0.2-0.4-0.4-0.5-0.7h0c0,0.1-0.1,0.3-0.1,0.5
				c-0.1,0.2-0.1,0.3-0.1,0.3h-0.8c0,0,0-0.2,0.1-0.4c0-0.2,0.1-0.4,0.1-0.7l1.2-5.9h0.8l-0.4,2c0,0.1-0.1,0.4-0.2,0.7h0
				c0.2-0.3,0.5-0.5,0.7-0.7C108.3,82.6,108.6,82.5,109,82.5z M108.8,83.2c-0.3,0-0.6,0.1-0.8,0.2c-0.2,0.1-0.4,0.3-0.6,0.6
				c-0.2,0.3-0.3,0.6-0.4,1c-0.1,0.4-0.1,0.7-0.1,1c0,0.4,0.1,0.7,0.3,0.9c0.2,0.2,0.5,0.3,0.8,0.3c0.4,0,0.7-0.1,0.9-0.4
				s0.4-0.6,0.5-1.1c0.1-0.5,0.2-1,0.2-1.4c0-0.4-0.1-0.7-0.2-0.9C109.3,83.3,109.1,83.2,108.8,83.2z"/>
			<path id="XMLID_459_" class="st1" d="M112.4,85.3c0,0.1,0,0.3,0,0.5c0,0.4,0.1,0.7,0.3,1s0.5,0.3,0.9,0.3c0.3,0,0.6-0.1,0.8-0.2
				c0.2-0.2,0.4-0.4,0.6-0.6l0.7,0.3c-0.2,0.4-0.5,0.7-0.9,0.9c-0.4,0.2-0.8,0.3-1.3,0.3c-0.6,0-1.1-0.2-1.5-0.5s-0.5-0.8-0.5-1.5
				c0-0.6,0.1-1.2,0.3-1.7c0.2-0.5,0.5-0.9,0.9-1.2c0.4-0.3,0.9-0.4,1.4-0.4c0.6,0,1.1,0.2,1.5,0.5c0.4,0.3,0.5,0.8,0.5,1.4
				c0,0.3,0,0.7-0.1,1H112.4z M115.4,84.7l0-0.3c0-0.4-0.1-0.7-0.3-0.9c-0.2-0.2-0.5-0.3-0.9-0.3c-0.4,0-0.8,0.1-1.1,0.4
				c-0.3,0.3-0.5,0.6-0.6,1.1H115.4z"/>
			<path id="XMLID_457_" class="st1" d="M121.2,86.2c0,0.5-0.2,0.9-0.6,1.2c-0.4,0.3-1,0.4-1.7,0.4c-0.5,0-1-0.1-1.3-0.3
				c-0.3-0.2-0.5-0.5-0.7-0.9l0.7-0.3c0.1,0.3,0.3,0.5,0.5,0.6c0.2,0.1,0.5,0.2,0.9,0.2c0.4,0,0.8-0.1,1-0.2s0.3-0.4,0.3-0.7
				c0-0.2-0.1-0.4-0.2-0.5c-0.2-0.1-0.5-0.3-1-0.4c-0.4-0.1-0.7-0.3-0.9-0.4c-0.2-0.1-0.4-0.3-0.5-0.4c-0.1-0.2-0.2-0.4-0.2-0.6
				c0-0.5,0.2-0.8,0.5-1.1c0.4-0.2,0.9-0.4,1.5-0.4c1.1,0,1.7,0.4,1.9,1.2l-0.8,0.1c-0.1-0.2-0.2-0.4-0.4-0.5
				c-0.2-0.1-0.4-0.2-0.8-0.2c-0.4,0-0.7,0.1-0.9,0.2c-0.2,0.1-0.3,0.3-0.3,0.5c0,0.1,0,0.2,0.1,0.3c0.1,0.1,0.2,0.2,0.3,0.2
				c0.1,0.1,0.4,0.2,0.9,0.3c0.4,0.1,0.7,0.3,0.9,0.4c0.2,0.1,0.4,0.3,0.5,0.5C121.2,85.8,121.2,86,121.2,86.2z"/>
			<path id="XMLID_455_" class="st1" d="M123.4,87.8c-0.3,0-0.5-0.1-0.6-0.2c-0.2-0.2-0.2-0.4-0.2-0.6c0-0.2,0-0.4,0.1-0.6l0.6-3.1
				h-0.6l0.1-0.6h0.6l0.5-1.1h0.6l-0.2,1.1h0.9l-0.1,0.6h-0.9l-0.6,3c0,0.2-0.1,0.3-0.1,0.4c0,0.3,0.1,0.4,0.4,0.4
				c0.1,0,0.3,0,0.5-0.1l-0.1,0.6C123.9,87.8,123.7,87.8,123.4,87.8z"/>
			<path id="XMLID_453_" class="st1" d="M131.6,83.3c-0.1,0-0.3-0.1-0.4-0.1c-0.3,0-0.6,0.2-0.9,0.5c-0.3,0.3-0.4,0.8-0.5,1.3
				l-0.5,2.7h-0.8l0.8-3.9l0.1-0.6l0.1-0.5h0.8l-0.2,1h0c0.2-0.4,0.4-0.7,0.6-0.9c0.2-0.2,0.4-0.3,0.7-0.3c0.1,0,0.3,0,0.4,0.1
				L131.6,83.3z"/>
			<path id="XMLID_450_" class="st1" d="M133,85.3c0,0.1,0,0.3,0,0.5c0,0.4,0.1,0.7,0.3,1c0.2,0.2,0.5,0.3,0.9,0.3
				c0.3,0,0.6-0.1,0.8-0.2c0.2-0.2,0.4-0.4,0.6-0.6l0.7,0.3c-0.2,0.4-0.5,0.7-0.9,0.9c-0.4,0.2-0.8,0.3-1.3,0.3
				c-0.6,0-1.1-0.2-1.5-0.5s-0.5-0.8-0.5-1.5c0-0.6,0.1-1.2,0.3-1.7c0.2-0.5,0.5-0.9,0.9-1.2c0.4-0.3,0.9-0.4,1.4-0.4
				c0.6,0,1.1,0.2,1.5,0.5c0.4,0.3,0.5,0.8,0.5,1.4c0,0.3,0,0.7-0.1,1H133z M136,84.7l0-0.3c0-0.4-0.1-0.7-0.3-0.9
				c-0.2-0.2-0.5-0.3-0.9-0.3c-0.4,0-0.8,0.1-1.1,0.4c-0.3,0.3-0.5,0.6-0.6,1.1H136z"/>
			<path id="XMLID_448_" class="st1" d="M141.8,86.2c0,0.5-0.2,0.9-0.6,1.2c-0.4,0.3-1,0.4-1.7,0.4c-0.5,0-1-0.1-1.3-0.3
				c-0.3-0.2-0.5-0.5-0.7-0.9l0.7-0.3c0.1,0.3,0.3,0.5,0.5,0.6c0.2,0.1,0.5,0.2,0.9,0.2c0.4,0,0.8-0.1,1-0.2s0.3-0.4,0.3-0.7
				c0-0.2-0.1-0.4-0.2-0.5c-0.2-0.1-0.5-0.3-1-0.4c-0.4-0.1-0.7-0.3-0.9-0.4c-0.2-0.1-0.4-0.3-0.5-0.4c-0.1-0.2-0.2-0.4-0.2-0.6
				c0-0.5,0.2-0.8,0.5-1.1c0.4-0.2,0.9-0.4,1.5-0.4c1.1,0,1.7,0.4,1.9,1.2l-0.8,0.1c-0.1-0.2-0.2-0.4-0.4-0.5
				c-0.2-0.1-0.4-0.2-0.8-0.2c-0.4,0-0.7,0.1-0.9,0.2c-0.2,0.1-0.3,0.3-0.3,0.5c0,0.1,0,0.2,0.1,0.3c0.1,0.1,0.2,0.2,0.3,0.2
				c0.1,0.1,0.4,0.2,0.9,0.3c0.4,0.1,0.7,0.3,0.9,0.4c0.2,0.1,0.4,0.3,0.5,0.5C141.8,85.8,141.8,86,141.8,86.2z"/>
			<path id="XMLID_446_" class="st1" d="M144.7,82.6l-0.6,3c-0.1,0.3-0.1,0.5-0.1,0.7c0,0.5,0.3,0.8,0.8,0.8c0.4,0,0.7-0.2,1-0.5
				s0.5-0.7,0.6-1.2l0.6-2.9h0.8l-0.8,4c-0.1,0.3-0.1,0.7-0.2,1.1h-0.8c0,0,0-0.2,0-0.4c0-0.2,0.1-0.4,0.1-0.5h0
				c-0.3,0.4-0.5,0.6-0.8,0.8s-0.6,0.2-0.9,0.2c-0.5,0-0.8-0.1-1-0.3c-0.2-0.2-0.4-0.6-0.4-1c0-0.2,0-0.5,0.1-0.8l0.6-3.1H144.7z"/>
			<path id="XMLID_444_" class="st1" d="M151.6,87.7l0.6-3c0.1-0.4,0.1-0.7,0.1-0.8c0-0.2-0.1-0.4-0.2-0.5c-0.1-0.1-0.3-0.2-0.6-0.2
				c-0.4,0-0.7,0.2-1,0.5c-0.3,0.3-0.4,0.7-0.5,1.2l-0.6,2.8h-0.8l0.8-4c0.1-0.3,0.1-0.7,0.2-1.1h0.8c0,0,0,0.2,0,0.4
				c0,0.2-0.1,0.4-0.1,0.5h0c0.2-0.4,0.5-0.6,0.7-0.7c0.2-0.1,0.5-0.2,0.8-0.2c0.4,0,0.7,0.1,0.9,0.3c0.2,0.2,0.4,0.5,0.4,0.8
				c0.3-0.4,0.5-0.7,0.8-0.9s0.5-0.2,0.9-0.2c0.4,0,0.7,0.1,1,0.3c0.2,0.2,0.3,0.6,0.3,1c0,0.2,0,0.5-0.1,0.8l-0.6,3.1h-0.8l0.6-3
				c0.1-0.4,0.1-0.7,0.1-0.8c0-0.2-0.1-0.4-0.2-0.5c-0.1-0.1-0.3-0.2-0.6-0.2c-0.4,0-0.7,0.2-1,0.5c-0.3,0.3-0.4,0.7-0.5,1.2
				l-0.6,2.9H151.6z"/>
			<path id="XMLID_440_" class="st1" d="M158.1,85.3c0,0.1,0,0.3,0,0.5c0,0.4,0.1,0.7,0.3,1c0.2,0.2,0.5,0.3,0.9,0.3
				c0.3,0,0.6-0.1,0.8-0.2c0.2-0.2,0.4-0.4,0.6-0.6l0.7,0.3c-0.2,0.4-0.5,0.7-0.9,0.9c-0.4,0.2-0.8,0.3-1.3,0.3
				c-0.6,0-1.1-0.2-1.5-0.5c-0.3-0.3-0.5-0.8-0.5-1.5c0-0.6,0.1-1.2,0.3-1.7c0.2-0.5,0.5-0.9,0.9-1.2c0.4-0.3,0.9-0.4,1.4-0.4
				c0.6,0,1.1,0.2,1.5,0.5c0.4,0.3,0.5,0.8,0.5,1.4c0,0.3,0,0.7-0.1,1H158.1z M161,84.7l0-0.3c0-0.4-0.1-0.7-0.3-0.9
				c-0.2-0.2-0.5-0.3-0.9-0.3c-0.4,0-0.8,0.1-1.1,0.4c-0.3,0.3-0.5,0.6-0.6,1.1H161z"/>
		</g>
	</g>
	<g id="XMLID_732_">
		<defs>
			<circle id="XMLID_733_" cx="195.4" cy="34.9" r="34.6"/>
		</defs>
		<clipPath id="XMLID_9_">
			<use xlink:href="#XMLID_733_"  style="overflow:visible;"/>
		</clipPath>
		<g id="XMLID_734_" class="st2">
			<g id="XMLID_756_">
				<g id="XMLID_782_">
					<path id="XMLID_36_" class="st0" d="M208.7,14.1c-0.2,1.8-0.4,3.4-0.3,4.9c0,0.3,0,0.4,0,0.7c0,0.3-0.1,0.6-0.1,0.8
						c-0.1,0.5-0.3,1-0.5,1.4c-0.2,0.4-0.5,0.8-0.8,1.2c-0.2,0.2-0.3,0.4-0.5,0.5c-0.2,0.2-0.3,0.3-0.5,0.5l0.2-0.3
						c-0.6,1.1-1.4,2.2-2.3,3.3c0.1-1.4,0.4-2.7,0.7-3.9l0,0l0.2-0.3c0.1-0.1,0.2-0.3,0.3-0.4c0.1-0.2,0.2-0.3,0.3-0.5
						c0.2-0.3,0.4-0.6,0.5-1c0.1-0.3,0.3-0.7,0.4-1c0.1-0.2,0.1-0.3,0.1-0.5l0.1-0.6c0.1-0.9,0.3-1.8,0.7-2.6
						C207.5,15.5,208,14.8,208.7,14.1z"/>
				</g>
				<g id="XMLID_779_">
					<path id="XMLID_34_" class="st0" d="M204.7,33.2c0.7,0.7,1.3,1.5,1.9,2.3c0.3,0.4,0.6,0.8,0.9,1.2c0.3,0.4,0.6,0.8,0.9,1.2
						c0.6,0.8,1.1,1.5,1.8,2.2c0.3,0.3,0.6,0.6,0.9,0.8c0.1,0.1,0.2,0.1,0.2,0.1c-0.1,0-0.3,0.1-0.2,0.1l0.4-0.3
						c0,0,0.2-0.1,0.2-0.2c0.1-0.1,0.2-0.2,0.2-0.4c0-0.1,0.1-0.3,0.1-0.5c0-0.2,0-0.4,0-0.6c0-0.4-0.2-0.8-0.3-1.3
						c-0.2-0.4-0.4-0.9-0.6-1.3l-0.4-0.7c-0.1-0.2-0.3-0.5-0.4-0.7c-0.2-0.5-0.4-1-0.6-1.5c-0.2-0.5-0.3-1-0.4-1.6
						c0-0.3-0.1-0.5-0.1-0.8c0-0.3,0-0.5,0-0.8c0.2,0.5,0.4,1,0.6,1.4c0.2,0.5,0.5,0.9,0.8,1.3c0.3,0.4,0.6,0.8,0.9,1.3l0.4,0.6
						l0.5,0.6c0.3,0.4,0.6,0.9,0.9,1.4c0.3,0.5,0.5,1.1,0.6,1.7c0.1,0.3,0.1,0.6,0.1,1c0,0.3-0.1,0.7-0.2,1c-0.1,0.3-0.3,0.7-0.5,1
						c-0.2,0.3-0.5,0.5-0.9,0.8l0.4-0.3c-0.1,0.1-0.1,0.2-0.2,0.3c-0.1,0.1-0.2,0.2-0.3,0.3c-0.3,0.2-0.6,0.3-0.9,0.2
						c-0.6,0-0.9-0.2-1.2-0.4c-0.6-0.4-0.9-0.8-1.3-1.2c-0.7-0.8-1.2-1.7-1.7-2.6c-0.2-0.5-0.5-0.9-0.7-1.4
						c-0.2-0.5-0.4-0.9-0.6-1.4C205.4,35,205,34.1,204.7,33.2z"/>
				</g>
				<g id="XMLID_776_">
					<path id="XMLID_32_" class="st0" d="M212.8,39.6c0.4,0,0.8,0,1.1-0.1c0.2-0.1,0.3-0.1,0.4-0.2c0-0.1,0.1-0.1,0.1-0.1
						c0-0.1,0.1-0.1,0.1-0.2c0.1-0.1,0.1-0.2,0.1-0.4c0-0.1,0-0.3,0.1-0.4c0-0.2,0-0.3,0-0.5l0-0.5l0.1,0.3c-0.3-0.5-0.6-1-0.9-1.5
						c-0.3-0.5-0.6-1-0.9-1.5l-0.1-0.2l0-0.3l0-0.4l0-0.4c0-0.3-0.1-0.6-0.1-0.8c-0.1-0.6-0.2-1.1-0.3-1.6l-0.1-0.4l0.1-0.2
						c0.3-0.6,0.6-1.3,0.9-1.9c0.3-0.6,0.7-1.2,1.1-1.8c0,0.7-0.1,1.4-0.1,2.1c-0.1,0.7-0.2,1.4-0.3,2.1l0-0.6
						c0.3,0.6,0.5,1.3,0.7,1.9c0.1,0.3,0.1,0.6,0.2,1c0,0.2,0,0.3,0.1,0.5l0,0.5l-0.2-0.5c0.3,0.5,0.6,1.1,0.9,1.6
						c0.1,0.3,0.3,0.6,0.4,0.9c0.1,0.3,0.2,0.6,0.3,0.9l0.1,0.2l0,0.1l-0.1,0.6c0,0.2-0.1,0.4-0.2,0.6c-0.1,0.2-0.2,0.4-0.3,0.6
						c-0.1,0.2-0.3,0.4-0.5,0.6c-0.4,0.3-0.9,0.5-1.4,0.4C213.5,40,213.1,39.8,212.8,39.6z"/>
				</g>
				<g id="XMLID_773_">
					<path id="XMLID_30_" class="st0" d="M214.7,26.6c0.3,1,0.7,2,1.1,2.9c0.2,0.5,0.4,0.9,0.7,1.4c0.2,0.4,0.5,0.9,0.8,1.2
						c0.2,0.2,0.3,0.4,0.5,0.6c0.2,0.2,0.3,0.4,0.5,0.5c0.2,0.1,0.4,0.3,0.5,0.5c0.2,0.1,0.4,0.3,0.5,0.4c0.4,0.2,0.8,0.3,0.8,0.2
						c0.1,0,0.1,0,0.1-0.1c0-0.1,0.1-0.1,0.1-0.2c0-0.1,0.1-0.1,0.1-0.2l-0.1,0.2v-0.1l0-0.2c0-0.1,0-0.2,0-0.4
						c0-0.2-0.1-0.5-0.2-0.7c-0.2-0.5-0.4-0.9-0.7-1.4l-0.1-0.1l0,0c-0.2-0.4-0.4-0.7-0.5-1.1c-0.2-0.4-0.3-0.7-0.4-1.1
						c-0.3-0.8-0.5-1.5-0.5-2.5l0-0.1l0-0.1l0.1-0.4l1,0.9c-0.7,0.1-1.3,0.3-2,0.3c-0.3,0-0.7,0-1,0c-0.3,0-0.7,0-1-0.1
						c-0.3,0-0.7-0.1-1-0.2c-0.3-0.1-0.7-0.2-1-0.4c-0.6-0.3-1.2-0.7-1.6-1.3c0.5,0.4,1.2,0.6,1.8,0.7c0.3,0.1,0.6,0.1,0.9,0.1
						c0.3,0,0.6,0,0.9,0c0.3,0,0.6-0.1,0.9-0.1c0.3,0,0.6-0.1,0.9-0.2c0.6-0.1,1.2-0.3,1.8-0.5l1.2-0.4l-0.2,1.4l0,0.4l0-0.2
						c0.1,0.6,0.3,1.2,0.6,1.9c0.1,0.3,0.3,0.6,0.5,1c0.2,0.3,0.3,0.7,0.5,0.9l-0.1-0.1c0.4,0.6,0.8,1.2,1.1,1.9
						c0.1,0.3,0.2,0.7,0.3,1.1c0,0.2,0,0.4,0.1,0.6l0,0.3c0,0.1,0,0.2,0,0.3l0,0.1l0,0.1c-0.2,0.3-0.3,0.6-0.6,1
						c-0.3,0.3-0.7,0.6-1.2,0.6c-0.5,0.1-0.9,0-1.2-0.1c-0.3-0.1-0.6-0.3-0.9-0.5c-0.3-0.2-0.5-0.4-0.7-0.6
						c-0.2-0.2-0.4-0.4-0.6-0.6c-0.2-0.2-0.4-0.5-0.5-0.7c-0.2-0.2-0.3-0.5-0.4-0.7c-0.5-1-0.9-2.1-1.1-3.1
						C214.7,28.7,214.6,27.6,214.7,26.6z"/>
				</g>
				<g id="XMLID_770_">
					<path id="XMLID_28_" class="st0" d="M218.6,26.1c0,0,0.3-0.4,0.8-1c0.5-0.6,1.2-1.5,2-2.6c0.4-0.6,0.8-1.2,1.2-1.8
						c0.2-0.3,0.4-0.7,0.6-1c0.2-0.4,0.4-0.7,0.6-1.1c0.2-0.4,0.4-0.8,0.5-1.2c0.2-0.4,0.3-0.8,0.4-1.2c0.3-0.8,0.5-1.7,0.7-2.6
						c0.2-0.9,0.4-1.8,0.7-2.7c0.2-0.5,0.3-0.9,0.5-1.4l0.3-0.7l0.4-0.6c0.5-0.8,1.2-1.5,1.9-2c0.7-0.5,1.4-0.9,2.1-1.2
						c0.7-0.3,1.3-0.5,1.9-0.7c0.5-0.2,1-0.3,1.5-0.3c0.8-0.1,1.3-0.2,1.3-0.2s-0.4,0.2-1.2,0.6c-0.4,0.2-0.8,0.4-1.3,0.7
						c-0.5,0.3-1,0.6-1.6,1c-0.6,0.4-1.1,0.8-1.6,1.3c-0.5,0.5-1,1.1-1.3,1.8c-0.4,0.7-0.6,1.5-0.8,2.3c-0.2,0.8-0.4,1.7-0.6,2.7
						c-0.2,0.9-0.5,1.8-0.8,2.7l-0.3,0.7l-0.3,0.7c-0.2,0.4-0.4,0.9-0.7,1.2c-0.2,0.4-0.4,0.7-0.7,1.1c-0.3,0.4-0.5,0.7-0.8,1
						c-0.5,0.6-1,1.2-1.6,1.7C220.3,25.2,218.6,26.1,218.6,26.1z"/>
				</g>
				<g id="XMLID_765_">
					<path id="XMLID_40_" class="st0" d="M206.1,28.6c0.4,0.6,0.5,1.4,0.5,2.2c0,0.4-0.2,0.8-0.4,1.2c-0.1,0.2-0.2,0.4-0.4,0.5
						c-0.2,0.2-0.4,0.3-0.5,0.4l-0.1,0l-0.2,0.1c-0.2,0-0.3,0.1-0.5,0.1c-0.1,0-0.3,0-0.5,0c-0.3,0-0.6,0-1-0.1
						c-0.3-0.1-0.7-0.2-1.1-0.5c-0.2-0.1-0.3-0.3-0.5-0.5c-0.1-0.2-0.2-0.4-0.3-0.6l-0.1-0.2l0-0.2c0-0.2,0.1-0.3,0.1-0.4
						c0-0.1,0.1-0.3,0.1-0.4c0.1-0.3,0.2-0.5,0.4-0.7c0.3-0.5,0.7-0.9,1.2-1.2c0.1-0.1,0.3-0.2,0.4-0.2c0.1,0,0.3-0.1,0.4-0.1
						c0.3,0,0.6-0.1,0.8,0C205.3,28.1,205.8,28.3,206.1,28.6z M206.1,28.6c-0.2,0-0.5,0.1-0.7,0.1c-0.2,0.1-0.4,0.1-0.6,0.2
						c-0.2,0.1-0.4,0.2-0.5,0.3c-0.1,0.1-0.3,0.2-0.4,0.4c-0.2,0.3-0.4,0.5-0.5,0.9c-0.1,0.2-0.1,0.3-0.2,0.5c0,0.1,0,0.2-0.1,0.3
						c0,0.1,0,0.2,0,0.2l0-0.5c0,0,0,0.1,0,0.1c0,0,0,0,0.1,0.1c0,0,0.2,0.1,0.3,0.1c0.2,0,0.3,0.1,0.5,0.1c0.1,0,0.2,0,0.3,0l0.3,0
						l-0.3,0.1c0.2-0.1,0.4-0.2,0.6-0.3c0.2-0.2,0.3-0.4,0.5-0.6C205.8,29.9,206,29.3,206.1,28.6z"/>
				</g>
				<g id="XMLID_760_">
					<path id="XMLID_65_" class="st0" d="M187.6,28.2c0.2,0,0.4,0.1,0.6,0.3c0.2,0.2,0.3,0.4,0.3,0.7c0,0.3,0,0.5-0.1,0.7
						c-0.1,0.2-0.1,0.4-0.3,0.6c-0.1,0.2-0.2,0.3-0.3,0.5c-0.1,0.2-0.3,0.3-0.4,0.4c-0.1,0.1-0.3,0.2-0.4,0.4l-0.1,0.1
						c0,0,0,0-0.1,0.1l-0.2,0.1l-1.5,1.1l-0.1-1.8c0-0.1,0-0.2,0-0.3c0-0.1,0-0.2,0-0.3c0-0.2,0.1-0.4,0.1-0.6
						c0.1-0.2,0.2-0.4,0.3-0.6c0.1-0.1,0.2-0.2,0.2-0.3l0.2-0.1l0,0c0,0,0,0,0,0l0.1,0l0.4-0.2l0.4-0.2
						C187,28.5,187.3,28.4,187.6,28.2z M187.6,28.2c0,0.4,0,0.7-0.1,1c0,0.2-0.1,0.3-0.2,0.5c0,0.1-0.1,0.2-0.1,0.2l-0.1,0.2l0,0
						c0,0,0,0,0,0l0,0l0,0c0,0,0,0.1,0,0.1l0,0.2l0,0.3l0,0.3l-1.6-0.7l0.2-0.2l0.2-0.2c0.1-0.1,0.3-0.2,0.4-0.2
						c0.2-0.2,0.5-0.3,0.7-0.5c0.2-0.2,0.4-0.3,0.6-0.4C187.7,28.9,187.8,28.6,187.6,28.2z"/>
				</g>
				<g id="XMLID_757_">
					<path id="XMLID_26_" class="st0" d="M223-6.8l-2.4,3.3l-1.2,1.6l-0.6,0.8l-0.6,0.8c-1.7,2.1-3.6,4.1-5.7,5.8l0,0l0,0
						c-0.2,0.1-0.4,0.3-0.6,0.4c-0.2,0.2-0.4,0.3-0.6,0.5c-0.4,0.3-0.8,0.7-1.2,1.1c-0.8,0.8-1.5,1.6-2.1,2.5l0,0l0,0
						c-1.1,1.3-2.3,2.6-3.5,3.8c-1.2,1.2-2.5,2.4-3.7,3.6c-0.6,0.6-1.3,1.1-2,1.7c-0.3,0.3-0.7,0.6-1,0.8l-0.6,0.4l-0.5,0.4
						l-4.3,2.8l-0.2,0.1c0.1,0,0,0-0.1,0.1l-0.2,0.1c-0.1,0.1-0.2,0.2-0.4,0.3c-0.2,0.2-0.5,0.5-0.7,0.8c-0.5,0.5-0.9,1.1-1.3,1.8
						l0,0l0,0l-2.6,3.4l0,0l-0.1,0.1c-0.1,0.1-0.2,0.3-0.3,0.4c-0.1,0.1-0.2,0.3-0.2,0.4c0,0.1,0,0.2,0,0.3c0,0,0,0.1,0.1,0.1
						c0,0.1,0.1,0.1,0.3,0.2l0.1,0.1l0,0l0,0c0.1,0.1-0.2-0.1-0.1-0.1l0,0l0,0l0,0l0.1,0l0.2,0.1l0.1,0c0,0,0,0,0,0c0,0,0,0,0,0
						l0.2,0c0.1,0,0.3-0.1,0.5-0.2c0.7-0.3,1.4-0.8,2-1.4c0.3-0.3,0.6-0.6,0.9-0.9c0.3-0.3,0.6-0.6,0.9-1l0.1-0.1l0.1-0.1
						c0.8-0.5,1.5-1,2.3-1.5c0.7-0.5,1.4-1.1,2-1.7l0.2-0.2l0.3-0.1c0.2-0.1,0.5-0.1,0.8-0.2l0.8-0.2c0.5-0.2,1-0.4,1.6-0.6
						c1-0.4,2-0.9,2.9-1.5l1.2-0.8l0.3,1.4l0.9,4.4l0.1,0.3l-0.2,0.3l-1,1.6l-0.5,0.8l-0.2,0.4l-0.1,0.2c0,0-0.1,0.1-0.1,0.1
						c-0.1,0.2-0.2,0.4-0.2,0.6c0,0.2,0,0.3,0.1,0.5c0.1,0.1,0.2,0.3,0.4,0.4c0.2,0.1,0.4,0.2,0.7,0.4l-0.2-0.1c0.1,0,0.2,0,0.4,0
						c0.1,0,0.3,0,0.4,0c0.3,0,0.5-0.1,0.8-0.1c0.5-0.1,1-0.3,1.5-0.6c0.2-0.1,0.5-0.3,0.7-0.4c0.2-0.2,0.4-0.3,0.6-0.5
						c0.2-0.2,0.4-0.4,0.5-0.6c0.2-0.2,0.3-0.5,0.4-0.7l0,0.1l0.7-2.4l0-0.1l0-0.1c0.7-1,1.3-2,1.7-3.1c0.1-0.2,0.1-0.3,0.2-0.5
						c0.1-0.2,0.2-0.3,0.3-0.5c0.2-0.3,0.5-0.5,0.8-0.7c0.3-0.2,0.6-0.3,0.9-0.4c0.3-0.1,0.6-0.2,1-0.3l-0.1,0
						c0.4-0.2,0.9-0.4,1.3-0.6c0.4-0.2,0.8-0.5,1.2-0.7c0.8-0.5,1.6-1.1,2.2-1.8c0.2-0.2,0.3-0.3,0.5-0.5l0.5-0.5
						c0.3-0.4,0.6-0.8,0.8-1.2c0.3-0.4,0.5-0.8,0.7-1.3c0.2-0.4,0.3-0.9,0.5-1.4c-0.1,0.5-0.2,1-0.4,1.4c-0.2,0.5-0.4,0.9-0.6,1.4
						c-0.2,0.5-0.5,0.9-0.8,1.3l-0.4,0.6c-0.1,0.2-0.3,0.4-0.5,0.6c-0.7,0.7-1.4,1.4-2.2,2c-0.4,0.3-0.8,0.6-1.3,0.8
						c-0.4,0.3-0.9,0.5-1.4,0.7l0,0l-0.1,0c-0.2,0.1-0.5,0.2-0.8,0.3c-0.3,0.1-0.5,0.2-0.7,0.4c-0.2,0.2-0.4,0.3-0.6,0.5
						c-0.1,0.1-0.1,0.2-0.2,0.3c-0.1,0.1-0.1,0.3-0.2,0.4c-0.5,1.2-1,2.3-1.7,3.4l0.1-0.2L210,30l0,0.1l0,0
						c-0.2,0.3-0.3,0.6-0.5,0.9c-0.2,0.3-0.4,0.6-0.6,0.8c-0.2,0.3-0.5,0.5-0.7,0.7c-0.3,0.2-0.5,0.4-0.8,0.6
						c-0.6,0.3-1.2,0.6-1.9,0.8c-0.3,0.1-0.7,0.1-1,0.2c-0.2,0-0.3,0-0.5,0c-0.2,0-0.3,0-0.5,0l-0.1,0l-0.1,0
						c-0.3-0.1-0.7-0.3-1-0.5c-0.3-0.2-0.7-0.5-0.9-0.9c-0.2-0.4-0.4-0.9-0.3-1.3c0-0.5,0.1-0.9,0.3-1.2c0-0.1,0.1-0.2,0.1-0.3
						c0-0.1,0.2-0.2,0.1-0.2l0.2-0.4l0.5-0.8l0.9-1.6l-0.1,0.6l-1-4.4l1.4,0.5c-1,0.7-2.1,1.3-3.2,1.8c-0.6,0.2-1.1,0.4-1.7,0.6
						l-0.9,0.3c-0.3,0.1-0.6,0.2-0.9,0.2l0.5-0.3c-0.7,0.8-1.5,1.4-2.3,2c-0.8,0.6-1.6,1.1-2.4,1.7l0.3-0.2c-0.3,0.4-0.6,0.7-1,1.1
						c-0.3,0.3-0.7,0.7-1,1c-0.7,0.6-1.5,1.3-2.5,1.8c-0.3,0.1-0.5,0.2-0.8,0.3c-0.2,0-0.3,0.1-0.5,0.1c-0.2,0-0.4,0-0.7,0
						c-0.1,0-0.2,0-0.2-0.1l-0.2-0.1l-0.1,0l0,0l0,0l0,0l-0.1-0.1l0,0l-0.2-0.1c-0.3-0.2-0.6-0.4-0.8-0.7c-0.3-0.3-0.4-0.7-0.5-1.1
						c0-0.4,0-0.8,0.1-1.1c0.1-0.3,0.2-0.6,0.4-0.8c0.2-0.3,0.3-0.5,0.6-0.7l-0.1,0.1l2.6-3.4l-0.1,0.1c0.4-0.7,0.9-1.3,1.4-2
						c0.3-0.3,0.6-0.6,0.9-0.9c0.2-0.1,0.3-0.3,0.5-0.4c0.1-0.1,0.2-0.1,0.3-0.2c0.1-0.1,0.2-0.1,0.4-0.2l-0.2,0.1l4.4-2.8L196,19
						l0.5-0.3c0.3-0.2,0.7-0.5,1-0.8c0.7-0.5,1.3-1.1,2-1.6c2.6-2.2,5-4.6,7.4-7l0,0c0.7-0.9,1.5-1.7,2.3-2.5
						c0.4-0.4,0.9-0.8,1.3-1.1c0.2-0.2,0.5-0.3,0.7-0.5c0.2-0.2,0.5-0.3,0.8-0.5l-0.1,0c2.1-1.6,4.1-3.3,5.9-5.3l0.7-0.8l0.6-0.8
						l1.3-1.5L223-6.8z"/>
				</g>
			</g>
			<g id="XMLID_735_">
				<g id="XMLID_751_">
					<path id="XMLID_69_" class="st0" d="M146.5,46.6c0.9-1.1,2-2.1,3.1-3c0.3-0.2,0.6-0.4,0.9-0.6c0.3-0.2,0.6-0.4,0.9-0.6
						c0.3-0.2,0.6-0.4,0.9-0.6c0.3-0.2,0.6-0.4,1-0.5l1-0.4l1-0.4c0.3-0.1,0.7-0.2,1.1-0.3c0.4-0.1,0.7-0.2,1.1-0.2l1.1-0.2l1.1,0
						c0.4,0,0.7,0,1.1,0l1.1,0.1l-0.1,0c0.5,0,1-0.1,1.4-0.2c0.1,0,0.2-0.1,0.3-0.1l0.3-0.2c0.1-0.1,0.3-0.1,0.4-0.2l0.4-0.1
						c1.1-0.2,2.2-0.3,3.2-0.3c1.1,0,2.2,0.2,3.2,0.6c0.3,0.1,0.5,0.2,0.8,0.3c0.3,0.1,0.5,0.2,0.8,0.3c0.5,0.2,1,0.5,1.4,0.9l0,0
						l0.1,0c0.3,0.2,0.6,0.5,0.9,0.7c0.3,0.2,0.6,0.4,0.9,0.6c0.6,0.4,1.3,0.7,2,1c0.3,0.1,0.7,0.2,1,0.3l0.3,0.1l0.1,0l0,0l0,0l0,0
						l0,0c0.1,0-0.1,0-0.1,0l0.1,0c0.2,0,0.4,0.1,0.5,0c0.1,0,0.2,0,0.4-0.1l0.5-0.1c0.3-0.1,0.7-0.3,1-0.4c1.3-0.7,2.5-1.7,3.6-2.7
						c0.3-0.3,0.6-0.5,0.8-0.8c0.3-0.4,0.7-0.6,1.1-0.9c0.4-0.2,0.9-0.5,1.4-0.6c0.5-0.1,1.2,0,1.8,0.3l-1.1,0.1
						c0.2-0.2,0.4-0.3,0.7-0.5c0.2-0.2,0.4-0.3,0.7-0.4c0.5-0.3,1-0.5,1.5-0.6c0.3-0.1,0.6-0.1,0.9-0.2c0.3,0,0.6,0,0.9,0l0.5,0.1
						c0.2,0,0.3,0.1,0.5,0.1c0.3,0.1,0.6,0.3,0.8,0.4l-0.9-0.1c0.2-0.1,0.4-0.1,0.6-0.2c0.2,0,0.4-0.1,0.6-0.1
						c0.4-0.1,0.8-0.1,1.2-0.1c0.4,0,0.8,0,1.3,0.2c0.5,0.2,0.9,0.5,1.2,0.9l0.2,0.3l0,0.4c0,0.1,0,0.1,0,0.2l0,0.1
						c0,0.1,0,0.2-0.1,0.2c-0.1,0.2-0.1,0.3-0.2,0.4c-0.2,0.3-0.4,0.5-0.6,0.7l-0.3-1.7c0.2,0.1,0.4,0.1,0.6,0.2
						c0.2,0.1,0.4,0.2,0.6,0.3c0.2,0.1,0.4,0.3,0.7,0.5c0.1,0.1,0.3,0.3,0.4,0.5c0.1,0.2,0.2,0.5,0.2,0.9l0,0.3l-0.2,0.2
						c-0.3,0.4-0.5,0.7-0.8,1c-0.3,0.3-0.5,0.6-0.8,0.9c-0.6,0.6-1.2,1.2-1.8,1.7c-0.6,0.6-1.3,1.1-2,1.5c-0.7,0.5-1.4,0.9-2.2,1.3
						l0.5-1.1c0.1,0.4,0,0.6,0,0.8c0,0.2-0.1,0.4-0.2,0.6c-0.2,0.4-0.4,0.7-0.7,1c-0.3,0.3-0.6,0.5-0.9,0.7
						c-0.3,0.2-0.6,0.3-0.9,0.5c-1.3,0.5-2.5,0.7-3.7,0.8l0.6-0.2l-3.6,3.2l-1.8,1.6l-0.9,0.8c-0.1,0.1-0.4,0.3-0.5,0.4
						c-0.2,0.1-0.4,0.3-0.6,0.4c-1.6,0.9-3.4,1.1-5.1,1.1c-0.9,0-1.7-0.1-2.5-0.3c-0.8-0.2-1.6-0.4-2.4-0.7c-3-1-6-1.9-9.1-2.4
						c-1.5-0.2-3.1-0.4-4.6-0.3c-1.5,0.1-3.1,0.4-4.1,1.5l-0.3,0.3l-0.2-0.4l-3-4.7L146.5,46.6z M146.5,46.6l3.3,4.5l3.2,4.5l-0.6,0
						c0.6-0.7,1.3-1.1,2.1-1.4c0.8-0.3,1.6-0.5,2.4-0.6c1.6-0.2,3.3-0.1,4.9,0.1c3.2,0.4,6.4,1.2,9.4,2.2c0.7,0.2,1.5,0.4,2.2,0.6
						c0.7,0.1,1.5,0.2,2.2,0.2c1.5,0,3-0.3,4.2-1c0.2-0.1,0.3-0.2,0.4-0.3c0.1-0.1,0.2-0.2,0.4-0.3l0.9-0.8l1.8-1.6l3.5-3.2l0.2-0.2
						l0.3,0c0.6-0.1,1.1-0.1,1.7-0.2c0.3,0,0.5-0.1,0.8-0.2c0.3-0.1,0.5-0.2,0.7-0.2c0.2-0.1,0.5-0.2,0.7-0.3
						c0.2-0.1,0.4-0.3,0.5-0.4c0.2-0.1,0.2-0.3,0.3-0.4c0-0.1,0.1-0.1,0.1-0.2c0,0,0-0.2,0-0.1l0.5-1.1c0.7-0.3,1.3-0.7,1.9-1.1
						c0.6-0.4,1.2-0.9,1.8-1.4c0.6-0.5,1.1-1,1.6-1.6c0.3-0.3,0.5-0.6,0.8-0.9c0.2-0.3,0.5-0.6,0.7-0.9l-0.2,0.5
						c0,0.1,0,0.3,0.1,0.3c0,0,0,0,0,0c-0.1,0-0.2-0.1-0.3-0.2c-0.1-0.1-0.3-0.1-0.4-0.2c-0.2-0.1-0.3-0.1-0.5-0.2l-1.9-0.6l1.6-1.2
						c0.1,0,0.1-0.1,0.1-0.1c0,0,0,0,0-0.1l0,0l0,0l0,0.1l0.2,0.7c-0.1-0.1-0.2-0.2-0.4-0.2c-0.2-0.1-0.4-0.1-0.7-0.1
						c-0.3,0-0.5,0-0.8,0.1c-0.1,0-0.3,0.1-0.4,0.1c-0.1,0-0.3,0.1-0.4,0.1l-0.4,0.1l-0.5-0.2c-0.1-0.1-0.3-0.2-0.4-0.2
						c-0.1,0-0.1-0.1-0.2-0.1l-0.2,0c-0.2,0-0.3,0-0.5,0c-0.2,0-0.4,0.1-0.5,0.1c-0.4,0.1-0.7,0.3-1.1,0.5c-0.2,0.1-0.4,0.2-0.5,0.3
						c-0.2,0.1-0.4,0.2-0.5,0.3l-0.5,0.5l-0.6-0.3c-0.1-0.1-0.3-0.1-0.5-0.1c-0.2,0-0.5,0.1-0.8,0.3c-0.3,0.2-0.6,0.4-0.8,0.6
						c-0.3,0.3-0.6,0.6-0.9,0.9c-1.2,1.1-2.5,2.1-4.1,2.9c-0.4,0.2-0.8,0.4-1.2,0.5l-0.7,0.2c-0.2,0.1-0.5,0.1-0.8,0.1
						c-0.3,0-0.4,0-0.6,0l-0.1,0l-0.1,0l0,0l0,0l0,0l-0.1,0l-0.3-0.1c-0.4-0.1-0.8-0.2-1.2-0.4c-0.8-0.3-1.5-0.7-2.3-1.2
						c-0.4-0.2-0.7-0.5-1-0.7c-0.3-0.3-0.6-0.5-1-0.8l0.1,0.1c-0.4-0.3-0.8-0.6-1.2-0.8c-0.2-0.1-0.4-0.2-0.6-0.3
						c-0.2-0.1-0.4-0.2-0.7-0.3c-0.9-0.3-1.9-0.5-2.8-0.6c-1-0.1-2,0-2.9,0.1l-0.3,0.1c-0.1,0-0.2,0-0.3,0.1l-0.4,0.2
						c-0.1,0.1-0.3,0.1-0.4,0.1c-0.6,0.1-1.1,0.2-1.7,0.2l0,0l-0.1,0l-1-0.1c-0.3-0.1-0.7-0.1-1-0.1l-1,0l-1,0.1
						c-0.4,0-0.7,0.1-1,0.2c-0.3,0.1-0.7,0.1-1,0.2l-1,0.3l-1,0.4c-0.3,0.1-0.6,0.3-1,0.4c-0.3,0.1-0.6,0.3-0.9,0.5
						c-0.3,0.2-0.6,0.3-0.9,0.5c-0.3,0.2-0.6,0.4-0.9,0.6C148.7,44.7,147.5,45.6,146.5,46.6z"/>
				</g>
				<g id="XMLID_748_">
					<path id="XMLID_24_" class="st0" d="M179.9,44.5c1.8-0.2,3.5-0.4,5.3-0.5l-0.1,0c1.6-0.3,3.1-0.4,4.7-0.2
						c0.4,0.1,0.8,0.1,1.2,0.2c0.2,0.1,0.4,0.1,0.6,0.2c0.2,0.1,0.4,0.1,0.6,0.3c0.2,0.1,0.4,0.2,0.6,0.4c0.2,0.2,0.4,0.3,0.6,0.5
						c0.2,0.2,0.3,0.5,0.4,0.7c0.1,0.3,0.2,0.5,0.2,0.8l0-0.1c0.1,0.4,0,0.5,0,0.8c0,0.2-0.1,0.4-0.2,0.6c-0.1,0.2-0.2,0.4-0.3,0.6
						c-0.1,0.2-0.2,0.3-0.4,0.5c-0.3,0.3-0.6,0.5-0.9,0.7c-0.3,0.2-0.6,0.3-0.9,0.5c-0.3,0.1-0.6,0.2-0.9,0.3
						c-0.3,0.1-0.6,0.2-0.9,0.2c-0.6,0.1-1.3,0.2-1.9,0.2l-0.1,0l-0.1,0c-1.4-0.2-2.7-0.5-4.1-0.7l-0.9-0.2l-1-0.1
						c-0.7-0.1-1.3-0.2-2-0.2c-0.7,0-1.3-0.1-2-0.1c-0.7,0-1.3,0-2,0c-0.3,0-0.7,0.1-1,0.1c-0.3,0.1-0.7,0.1-1,0.2
						c-0.3,0.1-0.6,0.2-1,0.3c-0.3,0.1-0.6,0.3-0.9,0.4c0.3-0.2,0.5-0.5,0.8-0.7c0.3-0.2,0.6-0.4,0.9-0.5c0.6-0.3,1.3-0.5,2-0.7
						c0.7-0.2,1.4-0.3,2.1-0.4c0.7-0.1,1.4-0.1,2.1-0.2c0.7,0,1.4,0,2.1,0c0.3,0,0.7,0,1,0.1l1.1,0.1c1.3,0.2,2.7,0.3,4,0.5l-0.2,0
						c0.6-0.1,1.1-0.1,1.7-0.2c0.3,0,0.5-0.1,0.8-0.2c0.3-0.1,0.5-0.2,0.7-0.2c0.2-0.1,0.5-0.2,0.7-0.3c0.2-0.1,0.4-0.2,0.5-0.4
						c0.1-0.1,0.1-0.1,0.2-0.2c0.1-0.1,0.1-0.1,0.1-0.2c0-0.1,0.1-0.1,0.1-0.2c0,0,0-0.2,0-0.1l0-0.1c0-0.1,0-0.2-0.1-0.3
						c0-0.1-0.1-0.2-0.1-0.3c-0.1-0.1-0.2-0.2-0.2-0.3c-0.1-0.1-0.2-0.2-0.3-0.2c-0.1-0.1-0.3-0.1-0.4-0.2c-0.1-0.1-0.3-0.1-0.5-0.2
						c-0.3-0.1-0.7-0.2-1-0.3c-0.7-0.1-1.4-0.2-2.1-0.3c-0.7-0.1-1.5-0.1-2.2,0l-0.1,0C183.5,44.9,181.7,44.8,179.9,44.5z"/>
				</g>
				<g id="XMLID_745_">
					<path id="XMLID_22_" class="st0" d="M198.6,39.5c0,0-0.7,0.3-1.5,0.8c-0.8,0.5-1.8,1.2-2.7,2c-0.2,0.2-0.5,0.5-0.8,0.6
						c-0.3,0.2-0.6,0.4-0.9,0.6c-0.6,0.4-1.2,0.6-1.7,0.8c-0.5,0.2-1,0.2-1.3,0.2c-0.3,0-0.5-0.1-0.5-0.1s0.2-0.1,0.4-0.3
						c0.2-0.2,0.5-0.5,0.9-0.8c0.3-0.3,0.8-0.7,1.2-1.2c0.2-0.2,0.4-0.4,0.7-0.6c0.2-0.2,0.5-0.4,0.7-0.7c1.1-1,2.6-1.6,3.7-1.6
						c0.6,0,1,0,1.4,0.1C198.4,39.4,198.6,39.5,198.6,39.5z"/>
				</g>
				<g id="XMLID_742_">
					<path id="XMLID_20_" class="st0" d="M195.4,38.2c0,0-0.6,0.6-1.4,1.3c-0.4,0.4-0.8,0.9-1.2,1.4c-0.2,0.3-0.4,0.5-0.7,0.8
						c-0.1,0.1-0.2,0.3-0.4,0.4c-0.2,0.1-0.3,0.3-0.5,0.4c-1.3,1-2.8,1.6-4,1.8c-1.2,0.3-2,0.2-2,0.2s0.6-0.6,1.5-1.2
						c0.9-0.7,2.1-1.5,3.2-2.3c0.2-0.2,0.5-0.4,0.8-0.7c0.2-0.2,0.6-0.5,0.9-0.7c0.6-0.5,1.2-0.8,1.8-1c0.6-0.2,1.1-0.3,1.4-0.4
						C195.2,38.2,195.4,38.2,195.4,38.2z"/>
				</g>
				<g id="XMLID_739_">
					<path id="XMLID_18_" class="st0" d="M190.2,39.2c0,0-0.3,0.6-0.9,1.4c-0.6,0.8-1.6,1.7-2.7,2.4c-0.6,0.4-1.1,0.7-1.7,0.9
						c-0.6,0.2-1.1,0.4-1.6,0.5c-1,0.2-1.7,0.1-1.7,0.1s0.5-0.4,1.3-1c0.4-0.3,0.8-0.6,1.3-1c0.2-0.2,0.5-0.3,0.7-0.5
						c0.3-0.2,0.5-0.3,0.8-0.5c1-0.7,2.1-1.3,3-1.7C189.5,39.4,190.2,39.2,190.2,39.2z"/>
				</g>
				<g id="XMLID_736_">
					<path id="XMLID_16_" class="st0" d="M191.4,46.2c-0.6,0-1.1-0.1-1.5-0.1c-0.2,0-0.5,0-0.6,0.1l-0.1,0c0,0,0,0,0,0l0,0l0,0l0,0
						l0,0l0,0c0,0,0.3-0.1,0.1,0l0,0c0,0-0.2,0.1-0.1,0.1c0.1,0,0.2-0.1,0.2-0.1c0,0,0,0.1,0,0.1l0,0.3c0,0.2,0,0.4,0,0.6l0,0.7
						l0,0.7l-0.8-0.9l0.1,0l0.1,0l0.3,0c0.2,0,0.4,0,0.6,0c0.4,0,0.8-0.1,1.2-0.3l0,0c0.2-0.1,0.5-0.2,0.7-0.3
						c0.1-0.1,0.2-0.1,0.3-0.2c0.1-0.1,0.2-0.2,0.2-0.3c0.1,0.1,0.1,0.3,0.1,0.5c0,0.2-0.1,0.3-0.1,0.5c-0.1,0.3-0.3,0.6-0.5,0.8
						l0,0c-0.2,0.3-0.4,0.5-0.7,0.7c-0.3,0.2-0.6,0.4-0.9,0.5c-0.3,0.1-0.6,0.2-1,0.2c-0.2,0-0.3,0-0.5,0l-0.2,0c-0.1,0-0.2,0-0.3,0
						l-0.7-0.1l0-0.8c0-0.3,0-0.5,0-0.8c0-0.3,0-0.5,0.1-0.8c0-0.3,0.1-0.6,0.2-0.9c0-0.1,0.1-0.3,0.2-0.5c0.1-0.2,0.2-0.3,0.3-0.5
						c0.1-0.1,0.3-0.3,0.4-0.4c0.1-0.1,0.1-0.1,0.2-0.1l0.1,0l0,0l0,0l0,0l0,0l0.1,0c0.1,0,0.1,0,0.2,0l0.3,0
						c0.3,0.1,0.6,0.2,0.9,0.3C190.6,45.4,191,45.8,191.4,46.2z"/>
				</g>
			</g>
			<g id="XMLID_198_">
				<path id="XMLID_63_" class="st0" d="M199.6,40.7c0,0-0.2,0.4-0.4,0.7c-0.2,0.3-0.5,0.6-0.6,0.7c0,0,0,0,0,0c0,0,0,0-0.1,0
					c-0.1,0-0.1,0-0.1,0.1c-0.1,0-0.1,0.1-0.1,0.2c-0.1,0.2-0.1,0.3-0.2,0.5c0,0.1-0.1,0.2-0.1,0.2s-0.1,0-0.3,0
					c-0.1,0-0.4-0.1-0.6-0.3c-0.1-0.1-0.2-0.2-0.3-0.3c-0.1-0.2-0.2-0.3-0.2-0.5c0-0.2,0-0.4,0.1-0.7c0.1-0.2,0.2-0.4,0.4-0.6
					c0.2-0.1,0.3-0.3,0.5-0.3c0.2-0.1,0.3-0.1,0.5-0.1c0.3,0,0.6,0,0.8,0.1C199.3,40.4,199.6,40.7,199.6,40.7z"/>
			</g>
		</g>
	</g>
</g>
</svg>
